  0
SECTION
  2
HEADER
  9
$ACADVER
  1
AC1014
  9
$HANDSEED
  5
FFFF
  9
$INSUNITS
 70
     0
  9
$MEASUREMENT
 70
     1
  0
ENDSEC
  0
SECTION
  2
TABLES
  0
TABLE
  2
VPORT
  5
8
330
0
100
AcDbSymbolTable
 70
     4
  0
VPORT
  5
2E
330
8
100
AcDbSymbolTableRecord
100
AcDbViewportTableRecord
  2
*ACTIVE
 70
     0
 10
0.0
 20
0.0
 11
1.0
 21
1.0
 12
210.0
 22
148.5
 13
0.0
 23
0.0
 14
10.0
 24
10.0
 15
10.0
 25
10.0
 16
0.0
 26
0.0
 36
1.0
 17
0.0
 27
0.0
 37
0.0
 40
341.0
 41
1.24
 42
50.0
 43
0.0
 44
0.0
 50
0.0
 51
0.0
 71
     0
 72
   100
 73
     1
 74
     3
 75
     0
 76
     0
 77
     0
 78
     0
  0
ENDTAB
  0
TABLE
  2
LTYPE
  5
5
330
0
100
AcDbSymbolTable
 70
     1
  0
LTYPE
  5
14
330
5
100
AcDbSymbolTableRecord
100
AcDbLinetypeTableRecord
  2
BYBLOCK
 70
     0
  3

 72
    65
 73
     0
 40
0.0
  0
LTYPE
  5
15
330
5
100
AcDbSymbolTableRecord
100
AcDbLinetypeTableRecord
  2
BYLAYER
 70
     0
  3

 72
    65
 73
     0
 40
0.0
  0
LTYPE
  5
16
330
5
100
AcDbSymbolTableRecord
100
AcDbLinetypeTableRecord
  2
CONTINUOUS
 70
     0
  3
Solid line
 72
    65
 73
     0
 40
0.0
  0
ENDTAB
  0
TABLE
  2
LAYER
  5
2
100
AcDbSymbolTable
 70
1
  0
LAYER
  5
50
100
AcDbSymbolTableRecord
100
AcDbLayerTableRecord
  2
0
 70
0
  6
CONTINUOUS
  0
ENDTAB
  0
TABLE
  2
STYLE
  5
3
330
0
100
AcDbSymbolTable
 70
     1
  0
STYLE
  5
11
330
3
100
AcDbSymbolTableRecord
100
AcDbTextStyleTableRecord
  2
STANDARD
 70
     0
 40
0.0
 41
1.0
 50
0.0
 71
     0
 42
2.5
  3
txt
  4

  0
ENDTAB
  0
TABLE
  2
VIEW
  5
6
330
0
100
AcDbSymbolTable
 70
     0
  0
ENDTAB
  0
TABLE
  2
UCS
  5
7
330
0
100
AcDbSymbolTable
 70
     0
  0
ENDTAB
  0
TABLE
  2
APPID
  5
9
330
0
100
AcDbSymbolTable
 70
     2
  0
APPID
  5
12
330
9
100
AcDbSymbolTableRecord
100
AcDbRegAppTableRecord
  2
ACAD
 70
     0
  0
ENDTAB
  0
TABLE
  2
DIMSTYLE
  5
A
330
0
100
AcDbSymbolTable
 70
     1
  0
DIMSTYLE
105
27
330
A
100
AcDbSymbolTableRecord
100
AcDbDimStyleTableRecord
  2
ISO-25
 70
     0
  3

  4

  5

  6

  7

 40
1.0
 41
2.5
 42
0.625
 43
3.75
 44
1.25
 45
0.0
 46
0.0
 47
0.0
 48
0.0
140
2.5
141
2.5
142
0.0
143
0.03937007874016
144
1.0
145
0.0
146
1.0
147
0.625
 71
     0
 72
     0
 73
     0
 74
     0
 75
     0
 76
     0
 77
     1
 78
     8
170
     0
171
     3
172
     1
173
     0
174
     0
175
     0
176
     0
177
     0
178
     0
270
     2
271
     2
272
     2
273
     2
274
     3
340
11
275
     0
280
     0
281
     0
282
     0
283
     0
284
     8
285
     0
286
     0
287
     3
288
     0
  0
ENDTAB
  0
TABLE
  2
BLOCK_RECORD
  5
1
330
0
100
AcDbSymbolTable
 70
     1
  0
BLOCK_RECORD
  5
1F
330
1
100
AcDbSymbolTableRecord
100
AcDbBlockTableRecord
  2
*MODEL_SPACE
  0
BLOCK_RECORD
  5
1B
330
1
100
AcDbSymbolTableRecord
100
AcDbBlockTableRecord
  2
*PAPER_SPACE
  0
ENDTAB
  0
ENDSEC
  0
SECTION
  2
BLOCKS
  0
BLOCK
  5
20
330
1F
100
AcDbEntity
  8
0
100
AcDbBlockBegin
  2
*MODEL_SPACE
 70
     0
 10
0.0
 20
0.0
 30
0.0
  3
*MODEL_SPACE
  1

  0
ENDBLK
  5
21
330
1F
100
AcDbEntity
  8
0
100
AcDbBlockEnd
  0
BLOCK
  5
1C
330
1B
100
AcDbEntity
 67
     1
  8
0
100
AcDbBlockBegin
  2
*PAPER_SPACE
  1

  0
ENDBLK
  5
1D
330
1B
100
AcDbEntity
 67
     1
  8
0
100
AcDbBlockEnd
  0
ENDSEC
  0
SECTION
  2
ENTITIES
  0
LWPOLYLINE
  5
100
100
AcDbEntity
  8
0
 62
7
100
AcDbPolyline
 90
4
 70
1
 10
587.296030
 20
435.800185
 30
0.0
 10
633.119030
 20
409.340185
 30
0.0
 10
659.576030
 20
455.170185
 30
0.0
 10
613.753030
 20
481.620185
 30
0.0
  0
LWPOLYLINE
  5
101
100
AcDbEntity
  8
0
 62
7
100
AcDbPolyline
 90
4
 70
1
 10
524.942030
 20
471.800185
 30
0.0
 10
570.768030
 20
445.340185
 30
0.0
 10
597.229030
 20
491.170185
 30
0.0
 10
551.395030
 20
517.623185
 30
0.0
  0
LWPOLYLINE
  5
102
100
AcDbEntity
  8
0
 62
7
100
AcDbPolyline
 90
4
 70
1
 10
623.296030
 20
498.150185
 30
0.0
 10
669.119030
 20
471.690185
 30
0.0
 10
695.576030
 20
517.519185
 30
0.0
 10
649.753030
 20
543.978185
 30
0.0
  0
LWPOLYLINE
  5
103
100
AcDbEntity
  8
0
 62
7
100
AcDbPolyline
 90
4
 70
1
 10
462.587030
 20
507.800185
 30
0.0
 10
508.414030
 20
481.340185
 30
0.0
 10
534.874030
 20
527.166185
 30
0.0
 10
489.047030
 20
553.623185
 30
0.0
  0
LWPOLYLINE
  5
104
100
AcDbEntity
  8
0
 62
7
100
AcDbPolyline
 90
4
 70
1
 10
143.452030
 20
543.289185
 30
0.0
 10
196.369030
 20
543.289185
 30
0.0
 10
196.369030
 20
490.380185
 30
0.0
 10
143.452030
 20
490.380185
 30
0.0
  0
LWPOLYLINE
  5
105
100
AcDbEntity
  8
0
 62
7
100
AcDbPolyline
 90
4
 70
1
 10
215.452030
 20
543.289185
 30
0.0
 10
268.363030
 20
543.289185
 30
0.0
 10
268.363030
 20
490.380185
 30
0.0
 10
215.452030
 20
490.380185
 30
0.0
  0
LWPOLYLINE
  5
106
100
AcDbEntity
  8
0
 62
7
100
AcDbPolyline
 90
4
 70
1
 10
560.942030
 20
534.150185
 30
0.0
 10
606.768030
 20
507.691185
 30
0.0
 10
633.229030
 20
553.519185
 30
0.0
 10
587.402030
 20
579.978185
 30
0.0
  0
LWPOLYLINE
  5
107
100
AcDbEntity
  8
0
 62
7
100
AcDbPolyline
 90
4
 70
1
 10
287.452030
 20
561.289185
 30
0.0
 10
340.368030
 20
561.289185
 30
0.0
 10
340.368030
 20
508.379185
 30
0.0
 10
287.452030
 20
508.379185
 30
0.0
  0
LWPOLYLINE
  5
108
100
AcDbEntity
  8
0
 62
7
100
AcDbPolyline
 90
4
 70
1
 10
359.452030
 20
570.290185
 30
0.0
 10
412.368030
 20
570.290185
 30
0.0
 10
412.368030
 20
517.374185
 30
0.0
 10
359.452030
 20
517.374185
 30
0.0
  0
LWPOLYLINE
  5
109
100
AcDbEntity
  8
0
 62
7
100
AcDbPolyline
 90
4
 70
1
 10
143.452030
 20
614.931185
 30
0.0
 10
196.369030
 20
614.931185
 30
0.0
 10
196.369030
 20
562.019185
 30
0.0
 10
143.452030
 20
562.019185
 30
0.0
  0
LWPOLYLINE
  5
10a
100
AcDbEntity
  8
0
 62
7
100
AcDbPolyline
 90
4
 70
1
 10
215.452030
 20
615.289185
 30
0.0
 10
268.368030
 20
615.289185
 30
0.0
 10
268.368030
 20
562.379185
 30
0.0
 10
215.452030
 20
562.379185
 30
0.0
  0
LWPOLYLINE
  5
10b
100
AcDbEntity
  8
0
 62
7
100
AcDbPolyline
 90
4
 70
1
 10
503.451030
 20
624.290185
 30
0.0
 10
556.368030
 20
624.290185
 30
0.0
 10
556.368030
 20
571.379185
 30
0.0
 10
503.451030
 20
571.379185
 30
0.0
  0
LWPOLYLINE
  5
10c
100
AcDbEntity
  8
0
 62
7
100
AcDbPolyline
 90
4
 70
1
 10
287.452030
 20
633.289185
 30
0.0
 10
340.368030
 20
633.289185
 30
0.0
 10
340.368030
 20
580.379185
 30
0.0
 10
287.452030
 20
580.379185
 30
0.0
  0
LWPOLYLINE
  5
10d
100
AcDbEntity
  8
0
 62
7
100
AcDbPolyline
 90
4
 70
1
 10
431.452030
 20
633.289185
 30
0.0
 10
484.368030
 20
633.289185
 30
0.0
 10
484.368030
 20
580.379185
 30
0.0
 10
431.452030
 20
580.379185
 30
0.0
  0
LWPOLYLINE
  5
10e
100
AcDbEntity
  8
0
 62
7
100
AcDbPolyline
 90
4
 70
1
 10
359.452030
 20
642.290185
 30
0.0
 10
412.368030
 20
642.290185
 30
0.0
 10
412.368030
 20
589.374185
 30
0.0
 10
359.452030
 20
589.374185
 30
0.0
  0
LWPOLYLINE
  5
10f
100
AcDbEntity
  8
0
 62
7
100
AcDbPolyline
 90
4
 70
1
 10
575.451030
 20
660.290185
 30
0.0
 10
628.368030
 20
660.290185
 30
0.0
 10
628.368030
 20
607.379185
 30
0.0
 10
575.451030
 20
607.379185
 30
0.0
  0
LWPOLYLINE
  5
110
100
AcDbEntity
  8
0
 62
7
100
AcDbPolyline
 90
4
 70
1
 10
143.452030
 20
686.931185
 30
0.0
 10
196.369030
 20
686.931185
 30
0.0
 10
196.369030
 20
634.014185
 30
0.0
 10
143.452030
 20
634.014185
 30
0.0
  0
LWPOLYLINE
  5
111
100
AcDbEntity
  8
0
 62
7
100
AcDbPolyline
 90
4
 70
1
 10
215.452030
 20
687.289185
 30
0.0
 10
268.368030
 20
687.289185
 30
0.0
 10
268.368030
 20
634.379185
 30
0.0
 10
215.452030
 20
634.379185
 30
0.0
  0
LWPOLYLINE
  5
112
100
AcDbEntity
  8
0
 62
7
100
AcDbPolyline
 90
4
 70
1
 10
503.451030
 20
696.290185
 30
0.0
 10
556.368030
 20
696.290185
 30
0.0
 10
556.368030
 20
643.379185
 30
0.0
 10
503.451030
 20
643.379185
 30
0.0
  0
LWPOLYLINE
  5
113
100
AcDbEntity
  8
0
 62
7
100
AcDbPolyline
 90
4
 70
1
 10
287.452030
 20
705.289185
 30
0.0
 10
340.368030
 20
705.289185
 30
0.0
 10
340.368030
 20
652.379185
 30
0.0
 10
287.452030
 20
652.379185
 30
0.0
  0
LWPOLYLINE
  5
114
100
AcDbEntity
  8
0
 62
7
100
AcDbPolyline
 90
4
 70
1
 10
431.452030
 20
705.289185
 30
0.0
 10
484.368030
 20
705.289185
 30
0.0
 10
484.368030
 20
652.379185
 30
0.0
 10
431.452030
 20
652.379185
 30
0.0
  0
LWPOLYLINE
  5
115
100
AcDbEntity
  8
0
 62
7
100
AcDbPolyline
 90
4
 70
1
 10
359.452030
 20
714.290185
 30
0.0
 10
412.368030
 20
714.290185
 30
0.0
 10
412.368030
 20
661.374185
 30
0.0
 10
359.452030
 20
661.374185
 30
0.0
  0
LWPOLYLINE
  5
116
100
AcDbEntity
  8
0
 62
7
100
AcDbPolyline
 90
4
 70
1
 10
575.451030
 20
732.290185
 30
0.0
 10
628.368030
 20
732.290185
 30
0.0
 10
628.368030
 20
679.379185
 30
0.0
 10
575.451030
 20
679.379185
 30
0.0
  0
LWPOLYLINE
  5
117
100
AcDbEntity
  8
0
 62
7
100
AcDbPolyline
 90
4
 70
1
 10
143.452030
 20
758.931185
 30
0.0
 10
196.369030
 20
758.931185
 30
0.0
 10
196.369030
 20
706.014185
 30
0.0
 10
143.452030
 20
706.014185
 30
0.0
  0
LWPOLYLINE
  5
118
100
AcDbEntity
  8
0
 62
7
100
AcDbPolyline
 90
4
 70
1
 10
215.452030
 20
759.290185
 30
0.0
 10
268.368030
 20
759.290185
 30
0.0
 10
268.368030
 20
706.379185
 30
0.0
 10
215.452030
 20
706.379185
 30
0.0
  0
LWPOLYLINE
  5
119
100
AcDbEntity
  8
0
 62
7
100
AcDbPolyline
 90
4
 70
1
 10
503.451030
 20
768.289185
 30
0.0
 10
556.368030
 20
768.289185
 30
0.0
 10
556.368030
 20
715.379185
 30
0.0
 10
503.451030
 20
715.379185
 30
0.0
  0
LWPOLYLINE
  5
11a
100
AcDbEntity
  8
0
 62
7
100
AcDbPolyline
 90
4
 70
1
 10
287.452030
 20
777.288185
 30
0.0
 10
340.368030
 20
777.288185
 30
0.0
 10
340.368030
 20
724.379185
 30
0.0
 10
287.452030
 20
724.379185
 30
0.0
  0
LWPOLYLINE
  5
11b
100
AcDbEntity
  8
0
 62
7
100
AcDbPolyline
 90
4
 70
1
 10
431.452030
 20
777.288185
 30
0.0
 10
484.368030
 20
777.288185
 30
0.0
 10
484.368030
 20
724.379185
 30
0.0
 10
431.452030
 20
724.379185
 30
0.0
  0
LWPOLYLINE
  5
11c
100
AcDbEntity
  8
0
 62
7
100
AcDbPolyline
 90
4
 70
1
 10
359.452030
 20
786.291185
 30
0.0
 10
412.368030
 20
786.291185
 30
0.0
 10
412.368030
 20
733.374185
 30
0.0
 10
359.452030
 20
733.374185
 30
0.0
  0
LWPOLYLINE
  5
11d
100
AcDbEntity
  8
0
 62
7
100
AcDbPolyline
 90
4
 70
1
 10
575.451030
 20
804.289185
 30
0.0
 10
628.368030
 20
804.289185
 30
0.0
 10
628.368030
 20
751.379185
 30
0.0
 10
575.451030
 20
751.379185
 30
0.0
  0
LWPOLYLINE
  5
11e
100
AcDbEntity
  8
0
 62
7
100
AcDbPolyline
 90
4
 70
1
 10
143.452030
 20
830.931185
 30
0.0
 10
196.369030
 20
830.931185
 30
0.0
 10
196.369030
 20
778.014185
 30
0.0
 10
143.452030
 20
778.014185
 30
0.0
  0
LWPOLYLINE
  5
11f
100
AcDbEntity
  8
0
 62
7
100
AcDbPolyline
 90
4
 70
1
 10
215.452030
 20
831.290185
 30
0.0
 10
268.368030
 20
831.290185
 30
0.0
 10
268.368030
 20
778.381185
 30
0.0
 10
215.452030
 20
778.381185
 30
0.0
  0
LWPOLYLINE
  5
120
100
AcDbEntity
  8
0
 62
7
100
AcDbPolyline
 90
4
 70
1
 10
503.451030
 20
840.289185
 30
0.0
 10
556.368030
 20
840.289185
 30
0.0
 10
556.368030
 20
787.380185
 30
0.0
 10
503.451030
 20
787.380185
 30
0.0
  0
LWPOLYLINE
  5
121
100
AcDbEntity
  8
0
 62
7
100
AcDbPolyline
 90
4
 70
1
 10
287.452030
 20
849.288185
 30
0.0
 10
340.368030
 20
849.288185
 30
0.0
 10
340.368030
 20
796.379185
 30
0.0
 10
287.452030
 20
796.379185
 30
0.0
  0
LWPOLYLINE
  5
122
100
AcDbEntity
  8
0
 62
7
100
AcDbPolyline
 90
4
 70
1
 10
431.452030
 20
849.288185
 30
0.0
 10
484.368030
 20
849.288185
 30
0.0
 10
484.368030
 20
796.379185
 30
0.0
 10
431.452030
 20
796.379185
 30
0.0
  0
LWPOLYLINE
  5
123
100
AcDbEntity
  8
0
 62
7
100
AcDbPolyline
 90
4
 70
1
 10
359.452030
 20
858.291185
 30
0.0
 10
412.368030
 20
858.291185
 30
0.0
 10
412.368030
 20
805.374185
 30
0.0
 10
359.452030
 20
805.374185
 30
0.0
  0
SPLINE
  5
124
100
AcDbEntity
  8
0
 62
7
100
AcDbSpline
 70
8
 71
3
 72
8
 73
4
 74
0
 40
0
 40
0
 40
0
 40
0
 40
1
 40
1
 40
1
 40
1
 10
321.871090
 20
789.637545
 30
0.0
 10
320.657703
 20
789.637545
 30
0.0
 10
319.563794
 20
788.906619
 30
0.0
 10
319.099451
 20
787.785595
 30
0.0
  0
SPLINE
  5
125
100
AcDbEntity
  8
0
 62
7
100
AcDbSpline
 70
8
 71
3
 72
8
 73
4
 74
0
 40
0
 40
0
 40
0
 40
0
 40
1
 40
1
 40
1
 40
1
 10
319.099451
 20
787.785595
 30
0.0
 10
318.635108
 20
786.664572
 30
0.0
 10
318.891776
 20
785.374219
 30
0.0
 10
319.749770
 20
784.516225
 30
0.0
  0
SPLINE
  5
126
100
AcDbEntity
  8
0
 62
7
100
AcDbSpline
 70
8
 71
3
 72
8
 73
4
 74
0
 40
0
 40
0
 40
0
 40
0
 40
1
 40
1
 40
1
 40
1
 10
319.749770
 20
784.516225
 30
0.0
 10
320.607764
 20
783.658231
 30
0.0
 10
321.898117
 20
783.401563
 30
0.0
 10
323.019140
 20
783.865906
 30
0.0
  0
SPLINE
  5
127
100
AcDbEntity
  8
0
 62
7
100
AcDbSpline
 70
8
 71
3
 72
8
 73
4
 74
0
 40
0
 40
0
 40
0
 40
0
 40
1
 40
1
 40
1
 40
1
 10
323.019140
 20
783.865906
 30
0.0
 10
324.140163
 20
784.330249
 30
0.0
 10
324.871090
 20
785.424158
 30
0.0
 10
324.871090
 20
786.637545
 30
0.0
  0
SPLINE
  5
128
100
AcDbEntity
  8
0
 62
7
100
AcDbSpline
 70
8
 71
3
 72
8
 73
4
 74
0
 40
0
 40
0
 40
0
 40
0
 40
1
 40
1
 40
1
 40
1
 10
324.871090
 20
786.637545
 30
0.0
 10
324.871090
 20
787.433195
 30
0.0
 10
324.555019
 20
788.196256
 30
0.0
 10
323.992410
 20
788.758865
 30
0.0
  0
SPLINE
  5
129
100
AcDbEntity
  8
0
 62
7
100
AcDbSpline
 70
8
 71
3
 72
8
 73
4
 74
0
 40
0
 40
0
 40
0
 40
0
 40
1
 40
1
 40
1
 40
1
 10
323.992410
 20
788.758865
 30
0.0
 10
323.429801
 20
789.321475
 30
0.0
 10
322.666739
 20
789.637545
 30
0.0
 10
321.871090
 20
789.637545
 30
0.0
  0
LWPOLYLINE
  5
12a
100
AcDbEntity
  8
0
 62
7
100
AcDbPolyline
 90
13
 70
1
 10
122.374130
 20
854.576315
 30
0.0
 10
263.144380
 20
854.576315
 30
0.0
 10
305.674110
 20
879.130865
 30
0.0
 10
503.893490
 20
879.130865
 30
0.0
 10
530.567720
 20
852.456635
 30
0.0
 10
586.276080
 20
852.456635
 30
0.0
 10
650.782600
 20
815.213775
 30
0.0
 10
650.782600
 20
576.235155
 30
0.0
 10
734.252270
 20
528.043915
 30
0.0
 10
645.367200
 20
374.090455
 30
0.0
 10
460.044570
 20
481.086525
 30
0.0
 10
121.574300
 20
481.086525
 30
0.0
 10
121.574300
 20
853.776485
 30
0.0
  0
SPLINE
  5
12b
100
AcDbEntity
  8
0
 62
7
100
AcDbSpline
 70
8
 71
3
 72
8
 73
4
 74
0
 40
0
 40
0
 40
0
 40
0
 40
1
 40
1
 40
1
 40
1
 10
321.871090
 20
789.637545
 30
0.0
 10
320.657703
 20
789.637545
 30
0.0
 10
319.563794
 20
788.906619
 30
0.0
 10
319.099451
 20
787.785595
 30
0.0
  0
SPLINE
  5
12c
100
AcDbEntity
  8
0
 62
7
100
AcDbSpline
 70
8
 71
3
 72
8
 73
4
 74
0
 40
0
 40
0
 40
0
 40
0
 40
1
 40
1
 40
1
 40
1
 10
319.099451
 20
787.785595
 30
0.0
 10
318.635108
 20
786.664572
 30
0.0
 10
318.891776
 20
785.374219
 30
0.0
 10
319.749770
 20
784.516225
 30
0.0
  0
SPLINE
  5
12d
100
AcDbEntity
  8
0
 62
7
100
AcDbSpline
 70
8
 71
3
 72
8
 73
4
 74
0
 40
0
 40
0
 40
0
 40
0
 40
1
 40
1
 40
1
 40
1
 10
319.749770
 20
784.516225
 30
0.0
 10
320.607764
 20
783.658231
 30
0.0
 10
321.898117
 20
783.401563
 30
0.0
 10
323.019140
 20
783.865906
 30
0.0
  0
SPLINE
  5
12e
100
AcDbEntity
  8
0
 62
7
100
AcDbSpline
 70
8
 71
3
 72
8
 73
4
 74
0
 40
0
 40
0
 40
0
 40
0
 40
1
 40
1
 40
1
 40
1
 10
323.019140
 20
783.865906
 30
0.0
 10
324.140163
 20
784.330249
 30
0.0
 10
324.871090
 20
785.424158
 30
0.0
 10
324.871090
 20
786.637545
 30
0.0
  0
SPLINE
  5
12f
100
AcDbEntity
  8
0
 62
7
100
AcDbSpline
 70
8
 71
3
 72
8
 73
4
 74
0
 40
0
 40
0
 40
0
 40
0
 40
1
 40
1
 40
1
 40
1
 10
324.871090
 20
786.637545
 30
0.0
 10
324.871090
 20
787.433195
 30
0.0
 10
324.555019
 20
788.196256
 30
0.0
 10
323.992410
 20
788.758865
 30
0.0
  0
SPLINE
  5
130
100
AcDbEntity
  8
0
 62
7
100
AcDbSpline
 70
8
 71
3
 72
8
 73
4
 74
0
 40
0
 40
0
 40
0
 40
0
 40
1
 40
1
 40
1
 40
1
 10
323.992410
 20
788.758865
 30
0.0
 10
323.429801
 20
789.321475
 30
0.0
 10
322.666739
 20
789.637545
 30
0.0
 10
321.871090
 20
789.637545
 30
0.0
  0
SPLINE
  5
131
100
AcDbEntity
  8
0
 62
7
100
AcDbSpline
 70
8
 71
3
 72
8
 73
4
 74
0
 40
0
 40
0
 40
0
 40
0
 40
1
 40
1
 40
1
 40
1
 10
321.871090
 20
575.238495
 30
0.0
 10
320.657703
 20
575.238495
 30
0.0
 10
319.563794
 20
574.507569
 30
0.0
 10
319.099451
 20
573.386545
 30
0.0
  0
SPLINE
  5
132
100
AcDbEntity
  8
0
 62
7
100
AcDbSpline
 70
8
 71
3
 72
8
 73
4
 74
0
 40
0
 40
0
 40
0
 40
0
 40
1
 40
1
 40
1
 40
1
 10
319.099451
 20
573.386545
 30
0.0
 10
318.635108
 20
572.265522
 30
0.0
 10
318.891776
 20
570.975169
 30
0.0
 10
319.749770
 20
570.117175
 30
0.0
  0
SPLINE
  5
133
100
AcDbEntity
  8
0
 62
7
100
AcDbSpline
 70
8
 71
3
 72
8
 73
4
 74
0
 40
0
 40
0
 40
0
 40
0
 40
1
 40
1
 40
1
 40
1
 10
319.749770
 20
570.117175
 30
0.0
 10
320.607764
 20
569.259181
 30
0.0
 10
321.898117
 20
569.002513
 30
0.0
 10
323.019140
 20
569.466856
 30
0.0
  0
SPLINE
  5
134
100
AcDbEntity
  8
0
 62
7
100
AcDbSpline
 70
8
 71
3
 72
8
 73
4
 74
0
 40
0
 40
0
 40
0
 40
0
 40
1
 40
1
 40
1
 40
1
 10
323.019140
 20
569.466856
 30
0.0
 10
324.140163
 20
569.931199
 30
0.0
 10
324.871090
 20
571.025108
 30
0.0
 10
324.871090
 20
572.238495
 30
0.0
  0
SPLINE
  5
135
100
AcDbEntity
  8
0
 62
7
100
AcDbSpline
 70
8
 71
3
 72
8
 73
4
 74
0
 40
0
 40
0
 40
0
 40
0
 40
1
 40
1
 40
1
 40
1
 10
324.871090
 20
572.238495
 30
0.0
 10
324.871090
 20
573.034145
 30
0.0
 10
324.555019
 20
573.797206
 30
0.0
 10
323.992410
 20
574.359815
 30
0.0
  0
SPLINE
  5
136
100
AcDbEntity
  8
0
 62
7
100
AcDbSpline
 70
8
 71
3
 72
8
 73
4
 74
0
 40
0
 40
0
 40
0
 40
0
 40
1
 40
1
 40
1
 40
1
 10
323.992410
 20
574.359815
 30
0.0
 10
323.429801
 20
574.922425
 30
0.0
 10
322.666739
 20
575.238495
 30
0.0
 10
321.871090
 20
575.238495
 30
0.0
  0
LWPOLYLINE
  5
137
100
AcDbEntity
  8
0
 62
7
100
AcDbPolyline
 90
2
 70
1
 10
321.871090
 20
789.637545
 30
0.0
 10
321.871090
 20
789.637545
 30
0.0
  0
SPLINE
  5
138
100
AcDbEntity
  8
0
 62
7
100
AcDbSpline
 70
8
 71
3
 72
8
 73
4
 74
0
 40
0
 40
0
 40
0
 40
0
 40
1
 40
1
 40
1
 40
1
 10
492.199250
 20
575.238495
 30
0.0
 10
490.985863
 20
575.238495
 30
0.0
 10
489.891954
 20
574.507569
 30
0.0
 10
489.427611
 20
573.386545
 30
0.0
  0
SPLINE
  5
139
100
AcDbEntity
  8
0
 62
7
100
AcDbSpline
 70
8
 71
3
 72
8
 73
4
 74
0
 40
0
 40
0
 40
0
 40
0
 40
1
 40
1
 40
1
 40
1
 10
489.427611
 20
573.386545
 30
0.0
 10
488.963268
 20
572.265522
 30
0.0
 10
489.219936
 20
570.975169
 30
0.0
 10
490.077930
 20
570.117175
 30
0.0
  0
SPLINE
  5
13a
100
AcDbEntity
  8
0
 62
7
100
AcDbSpline
 70
8
 71
3
 72
8
 73
4
 74
0
 40
0
 40
0
 40
0
 40
0
 40
1
 40
1
 40
1
 40
1
 10
490.077930
 20
570.117175
 30
0.0
 10
490.935924
 20
569.259181
 30
0.0
 10
492.226277
 20
569.002513
 30
0.0
 10
493.347300
 20
569.466856
 30
0.0
  0
SPLINE
  5
13b
100
AcDbEntity
  8
0
 62
7
100
AcDbSpline
 70
8
 71
3
 72
8
 73
4
 74
0
 40
0
 40
0
 40
0
 40
0
 40
1
 40
1
 40
1
 40
1
 10
493.347300
 20
569.466856
 30
0.0
 10
494.468323
 20
569.931199
 30
0.0
 10
495.199250
 20
571.025108
 30
0.0
 10
495.199250
 20
572.238495
 30
0.0
  0
SPLINE
  5
13c
100
AcDbEntity
  8
0
 62
7
100
AcDbSpline
 70
8
 71
3
 72
8
 73
4
 74
0
 40
0
 40
0
 40
0
 40
0
 40
1
 40
1
 40
1
 40
1
 10
495.199250
 20
572.238495
 30
0.0
 10
495.199250
 20
573.034145
 30
0.0
 10
494.883179
 20
573.797206
 30
0.0
 10
494.320570
 20
574.359815
 30
0.0
  0
SPLINE
  5
13d
100
AcDbEntity
  8
0
 62
7
100
AcDbSpline
 70
8
 71
3
 72
8
 73
4
 74
0
 40
0
 40
0
 40
0
 40
0
 40
1
 40
1
 40
1
 40
1
 10
494.320570
 20
574.359815
 30
0.0
 10
493.757961
 20
574.922425
 30
0.0
 10
492.994899
 20
575.238495
 30
0.0
 10
492.199250
 20
575.238495
 30
0.0
  0
LWPOLYLINE
  5
13e
100
AcDbEntity
  8
0
 62
7
100
AcDbPolyline
 90
1
 70
1
 10
321.871090
 20
575.238495
 30
0.0
  0
SPLINE
  5
13f
100
AcDbEntity
  8
0
 62
7
100
AcDbSpline
 70
8
 71
3
 72
8
 73
4
 74
0
 40
0
 40
0
 40
0
 40
0
 40
1
 40
1
 40
1
 40
1
 10
492.199250
 20
790.431645
 30
0.0
 10
490.985863
 20
790.431645
 30
0.0
 10
489.891954
 20
789.700719
 30
0.0
 10
489.427611
 20
788.579695
 30
0.0
  0
SPLINE
  5
140
100
AcDbEntity
  8
0
 62
7
100
AcDbSpline
 70
8
 71
3
 72
8
 73
4
 74
0
 40
0
 40
0
 40
0
 40
0
 40
1
 40
1
 40
1
 40
1
 10
489.427611
 20
788.579695
 30
0.0
 10
488.963268
 20
787.458672
 30
0.0
 10
489.219936
 20
786.168319
 30
0.0
 10
490.077930
 20
785.310325
 30
0.0
  0
SPLINE
  5
141
100
AcDbEntity
  8
0
 62
7
100
AcDbSpline
 70
8
 71
3
 72
8
 73
4
 74
0
 40
0
 40
0
 40
0
 40
0
 40
1
 40
1
 40
1
 40
1
 10
490.077930
 20
785.310325
 30
0.0
 10
490.935924
 20
784.452331
 30
0.0
 10
492.226277
 20
784.195663
 30
0.0
 10
493.347300
 20
784.660006
 30
0.0
  0
SPLINE
  5
142
100
AcDbEntity
  8
0
 62
7
100
AcDbSpline
 70
8
 71
3
 72
8
 73
4
 74
0
 40
0
 40
0
 40
0
 40
0
 40
1
 40
1
 40
1
 40
1
 10
493.347300
 20
784.660006
 30
0.0
 10
494.468323
 20
785.124349
 30
0.0
 10
495.199250
 20
786.218258
 30
0.0
 10
495.199250
 20
787.431645
 30
0.0
  0
SPLINE
  5
143
100
AcDbEntity
  8
0
 62
7
100
AcDbSpline
 70
8
 71
3
 72
8
 73
4
 74
0
 40
0
 40
0
 40
0
 40
0
 40
1
 40
1
 40
1
 40
1
 10
495.199250
 20
787.431645
 30
0.0
 10
495.199250
 20
788.227295
 30
0.0
 10
494.883179
 20
788.990356
 30
0.0
 10
494.320570
 20
789.552965
 30
0.0
  0
SPLINE
  5
144
100
AcDbEntity
  8
0
 62
7
100
AcDbSpline
 70
8
 71
3
 72
8
 73
4
 74
0
 40
0
 40
0
 40
0
 40
0
 40
1
 40
1
 40
1
 40
1
 10
494.320570
 20
789.552965
 30
0.0
 10
493.757961
 20
790.115575
 30
0.0
 10
492.994899
 20
790.431645
 30
0.0
 10
492.199250
 20
790.431645
 30
0.0
  0
LWPOLYLINE
  5
145
100
AcDbEntity
  8
0
 62
7
100
AcDbPolyline
 90
1
 70
1
 10
492.199250
 20
575.238495
 30
0.0
  0
SPLINE
  5
146
100
AcDbEntity
  8
0
 62
7
100
AcDbSpline
 70
8
 71
3
 72
8
 73
4
 74
0
 40
0
 40
0
 40
0
 40
0
 40
1
 40
1
 40
1
 40
1
 10
172.585820
 20
771.770965
 30
0.0
 10
171.372433
 20
771.770965
 30
0.0
 10
170.278524
 20
771.040039
 30
0.0
 10
169.814181
 20
769.919015
 30
0.0
  0
SPLINE
  5
147
100
AcDbEntity
  8
0
 62
7
100
AcDbSpline
 70
8
 71
3
 72
8
 73
4
 74
0
 40
0
 40
0
 40
0
 40
0
 40
1
 40
1
 40
1
 40
1
 10
169.814181
 20
769.919015
 30
0.0
 10
169.349838
 20
768.797992
 30
0.0
 10
169.606506
 20
767.507639
 30
0.0
 10
170.464500
 20
766.649645
 30
0.0
  0
SPLINE
  5
148
100
AcDbEntity
  8
0
 62
7
100
AcDbSpline
 70
8
 71
3
 72
8
 73
4
 74
0
 40
0
 40
0
 40
0
 40
0
 40
1
 40
1
 40
1
 40
1
 10
170.464500
 20
766.649645
 30
0.0
 10
171.322494
 20
765.791651
 30
0.0
 10
172.612847
 20
765.534983
 30
0.0
 10
173.733870
 20
765.999326
 30
0.0
  0
SPLINE
  5
149
100
AcDbEntity
  8
0
 62
7
100
AcDbSpline
 70
8
 71
3
 72
8
 73
4
 74
0
 40
0
 40
0
 40
0
 40
0
 40
1
 40
1
 40
1
 40
1
 10
173.733870
 20
765.999326
 30
0.0
 10
174.854893
 20
766.463669
 30
0.0
 10
175.585820
 20
767.557578
 30
0.0
 10
175.585820
 20
768.770965
 30
0.0
  0
SPLINE
  5
14a
100
AcDbEntity
  8
0
 62
7
100
AcDbSpline
 70
8
 71
3
 72
8
 73
4
 74
0
 40
0
 40
0
 40
0
 40
0
 40
1
 40
1
 40
1
 40
1
 10
175.585820
 20
768.770965
 30
0.0
 10
175.585820
 20
769.566615
 30
0.0
 10
175.269749
 20
770.329676
 30
0.0
 10
174.707140
 20
770.892285
 30
0.0
  0
SPLINE
  5
14b
100
AcDbEntity
  8
0
 62
7
100
AcDbSpline
 70
8
 71
3
 72
8
 73
4
 74
0
 40
0
 40
0
 40
0
 40
0
 40
1
 40
1
 40
1
 40
1
 10
174.707140
 20
770.892285
 30
0.0
 10
174.144531
 20
771.454895
 30
0.0
 10
173.381469
 20
771.770965
 30
0.0
 10
172.585820
 20
771.770965
 30
0.0
  0
LWPOLYLINE
  5
14c
100
AcDbEntity
  8
0
 62
7
100
AcDbPolyline
 90
1
 70
1
 10
492.199250
 20
790.431645
 30
0.0
  0
SPLINE
  5
14d
100
AcDbEntity
  8
0
 62
7
100
AcDbSpline
 70
8
 71
3
 72
8
 73
4
 74
0
 40
0
 40
0
 40
0
 40
0
 40
1
 40
1
 40
1
 40
1
 10
172.585820
 20
554.195585
 30
0.0
 10
171.372433
 20
554.195585
 30
0.0
 10
170.278524
 20
553.464659
 30
0.0
 10
169.814181
 20
552.343635
 30
0.0
  0
SPLINE
  5
14e
100
AcDbEntity
  8
0
 62
7
100
AcDbSpline
 70
8
 71
3
 72
8
 73
4
 74
0
 40
0
 40
0
 40
0
 40
0
 40
1
 40
1
 40
1
 40
1
 10
169.814181
 20
552.343635
 30
0.0
 10
169.349838
 20
551.222612
 30
0.0
 10
169.606506
 20
549.932259
 30
0.0
 10
170.464500
 20
549.074265
 30
0.0
  0
SPLINE
  5
14f
100
AcDbEntity
  8
0
 62
7
100
AcDbSpline
 70
8
 71
3
 72
8
 73
4
 74
0
 40
0
 40
0
 40
0
 40
0
 40
1
 40
1
 40
1
 40
1
 10
170.464500
 20
549.074265
 30
0.0
 10
171.322494
 20
548.216271
 30
0.0
 10
172.612847
 20
547.959603
 30
0.0
 10
173.733870
 20
548.423946
 30
0.0
  0
SPLINE
  5
150
100
AcDbEntity
  8
0
 62
7
100
AcDbSpline
 70
8
 71
3
 72
8
 73
4
 74
0
 40
0
 40
0
 40
0
 40
0
 40
1
 40
1
 40
1
 40
1
 10
173.733870
 20
548.423946
 30
0.0
 10
174.854893
 20
548.888289
 30
0.0
 10
175.585820
 20
549.982198
 30
0.0
 10
175.585820
 20
551.195585
 30
0.0
  0
SPLINE
  5
151
100
AcDbEntity
  8
0
 62
7
100
AcDbSpline
 70
8
 71
3
 72
8
 73
4
 74
0
 40
0
 40
0
 40
0
 40
0
 40
1
 40
1
 40
1
 40
1
 10
175.585820
 20
551.195585
 30
0.0
 10
175.585820
 20
551.991235
 30
0.0
 10
175.269749
 20
552.754296
 30
0.0
 10
174.707140
 20
553.316905
 30
0.0
  0
SPLINE
  5
152
100
AcDbEntity
  8
0
 62
7
100
AcDbSpline
 70
8
 71
3
 72
8
 73
4
 74
0
 40
0
 40
0
 40
0
 40
0
 40
1
 40
1
 40
1
 40
1
 10
174.707140
 20
553.316905
 30
0.0
 10
174.144531
 20
553.879515
 30
0.0
 10
173.381469
 20
554.195585
 30
0.0
 10
172.585820
 20
554.195585
 30
0.0
  0
LWPOLYLINE
  5
153
100
AcDbEntity
  8
0
 62
7
100
AcDbPolyline
 90
1
 70
1
 10
172.585820
 20
771.770965
 30
0.0
  0
SPLINE
  5
154
100
AcDbEntity
  8
0
 62
7
100
AcDbSpline
 70
8
 71
3
 72
8
 73
4
 74
0
 40
0
 40
0
 40
0
 40
0
 40
1
 40
1
 40
1
 40
1
 10
610.934940
 20
499.583895
 30
0.0
 10
609.721553
 20
499.583895
 30
0.0
 10
608.627644
 20
498.852969
 30
0.0
 10
608.163301
 20
497.731945
 30
0.0
  0
SPLINE
  5
155
100
AcDbEntity
  8
0
 62
7
100
AcDbSpline
 70
8
 71
3
 72
8
 73
4
 74
0
 40
0
 40
0
 40
0
 40
0
 40
1
 40
1
 40
1
 40
1
 10
608.163301
 20
497.731945
 30
0.0
 10
607.698958
 20
496.610922
 30
0.0
 10
607.955626
 20
495.320569
 30
0.0
 10
608.813620
 20
494.462575
 30
0.0
  0
SPLINE
  5
156
100
AcDbEntity
  8
0
 62
7
100
AcDbSpline
 70
8
 71
3
 72
8
 73
4
 74
0
 40
0
 40
0
 40
0
 40
0
 40
1
 40
1
 40
1
 40
1
 10
608.813620
 20
494.462575
 30
0.0
 10
609.671614
 20
493.604581
 30
0.0
 10
610.961967
 20
493.347913
 30
0.0
 10
612.082990
 20
493.812256
 30
0.0
  0
SPLINE
  5
157
100
AcDbEntity
  8
0
 62
7
100
AcDbSpline
 70
8
 71
3
 72
8
 73
4
 74
0
 40
0
 40
0
 40
0
 40
0
 40
1
 40
1
 40
1
 40
1
 10
612.082990
 20
493.812256
 30
0.0
 10
613.204013
 20
494.276599
 30
0.0
 10
613.934940
 20
495.370508
 30
0.0
 10
613.934940
 20
496.583895
 30
0.0
  0
SPLINE
  5
158
100
AcDbEntity
  8
0
 62
7
100
AcDbSpline
 70
8
 71
3
 72
8
 73
4
 74
0
 40
0
 40
0
 40
0
 40
0
 40
1
 40
1
 40
1
 40
1
 10
613.934940
 20
496.583895
 30
0.0
 10
613.934940
 20
497.379545
 30
0.0
 10
613.618869
 20
498.142606
 30
0.0
 10
613.056260
 20
498.705215
 30
0.0
  0
SPLINE
  5
159
100
AcDbEntity
  8
0
 62
7
100
AcDbSpline
 70
8
 71
3
 72
8
 73
4
 74
0
 40
0
 40
0
 40
0
 40
0
 40
1
 40
1
 40
1
 40
1
 10
613.056260
 20
498.705215
 30
0.0
 10
612.493651
 20
499.267825
 30
0.0
 10
611.730589
 20
499.583895
 30
0.0
 10
610.934940
 20
499.583895
 30
0.0
  0
LWPOLYLINE
  5
15a
100
AcDbEntity
  8
0
 62
7
100
AcDbPolyline
 90
1
 70
1
 10
172.585820
 20
554.195585
 30
0.0
  0
SPLINE
  5
15b
100
AcDbEntity
  8
0
 62
7
100
AcDbSpline
 70
8
 71
3
 72
8
 73
4
 74
0
 40
0
 40
0
 40
0
 40
0
 40
1
 40
1
 40
1
 40
1
 10
172.585820
 20
699.268645
 30
0.0
 10
171.372433
 20
699.268645
 30
0.0
 10
170.278524
 20
698.537719
 30
0.0
 10
169.814181
 20
697.416695
 30
0.0
  0
SPLINE
  5
15c
100
AcDbEntity
  8
0
 62
7
100
AcDbSpline
 70
8
 71
3
 72
8
 73
4
 74
0
 40
0
 40
0
 40
0
 40
0
 40
1
 40
1
 40
1
 40
1
 10
169.814181
 20
697.416695
 30
0.0
 10
169.349838
 20
696.295672
 30
0.0
 10
169.606506
 20
695.005319
 30
0.0
 10
170.464500
 20
694.147325
 30
0.0
  0
SPLINE
  5
15d
100
AcDbEntity
  8
0
 62
7
100
AcDbSpline
 70
8
 71
3
 72
8
 73
4
 74
0
 40
0
 40
0
 40
0
 40
0
 40
1
 40
1
 40
1
 40
1
 10
170.464500
 20
694.147325
 30
0.0
 10
171.322494
 20
693.289331
 30
0.0
 10
172.612847
 20
693.032663
 30
0.0
 10
173.733870
 20
693.497006
 30
0.0
  0
SPLINE
  5
15e
100
AcDbEntity
  8
0
 62
7
100
AcDbSpline
 70
8
 71
3
 72
8
 73
4
 74
0
 40
0
 40
0
 40
0
 40
0
 40
1
 40
1
 40
1
 40
1
 10
173.733870
 20
693.497006
 30
0.0
 10
174.854893
 20
693.961349
 30
0.0
 10
175.585820
 20
695.055258
 30
0.0
 10
175.585820
 20
696.268645
 30
0.0
  0
SPLINE
  5
15f
100
AcDbEntity
  8
0
 62
7
100
AcDbSpline
 70
8
 71
3
 72
8
 73
4
 74
0
 40
0
 40
0
 40
0
 40
0
 40
1
 40
1
 40
1
 40
1
 10
175.585820
 20
696.268645
 30
0.0
 10
175.585820
 20
697.064295
 30
0.0
 10
175.269749
 20
697.827356
 30
0.0
 10
174.707140
 20
698.389965
 30
0.0
  0
SPLINE
  5
160
100
AcDbEntity
  8
0
 62
7
100
AcDbSpline
 70
8
 71
3
 72
8
 73
4
 74
0
 40
0
 40
0
 40
0
 40
0
 40
1
 40
1
 40
1
 40
1
 10
174.707140
 20
698.389965
 30
0.0
 10
174.144531
 20
698.952575
 30
0.0
 10
173.381469
 20
699.268645
 30
0.0
 10
172.585820
 20
699.268645
 30
0.0
  0
LWPOLYLINE
  5
161
100
AcDbEntity
  8
0
 62
7
100
AcDbPolyline
 90
1
 70
1
 10
610.934940
 20
499.583895
 30
0.0
  0
SPLINE
  5
162
100
AcDbEntity
  8
0
 62
7
100
AcDbSpline
 70
8
 71
3
 72
8
 73
4
 74
0
 40
0
 40
0
 40
0
 40
0
 40
1
 40
1
 40
1
 40
1
 10
321.871090
 20
717.660615
 30
0.0
 10
320.657703
 20
717.660615
 30
0.0
 10
319.563794
 20
716.929689
 30
0.0
 10
319.099451
 20
715.808665
 30
0.0
  0
SPLINE
  5
163
100
AcDbEntity
  8
0
 62
7
100
AcDbSpline
 70
8
 71
3
 72
8
 73
4
 74
0
 40
0
 40
0
 40
0
 40
0
 40
1
 40
1
 40
1
 40
1
 10
319.099451
 20
715.808665
 30
0.0
 10
318.635108
 20
714.687642
 30
0.0
 10
318.891776
 20
713.397289
 30
0.0
 10
319.749770
 20
712.539295
 30
0.0
  0
SPLINE
  5
164
100
AcDbEntity
  8
0
 62
7
100
AcDbSpline
 70
8
 71
3
 72
8
 73
4
 74
0
 40
0
 40
0
 40
0
 40
0
 40
1
 40
1
 40
1
 40
1
 10
319.749770
 20
712.539295
 30
0.0
 10
320.607764
 20
711.681301
 30
0.0
 10
321.898117
 20
711.424633
 30
0.0
 10
323.019140
 20
711.888976
 30
0.0
  0
SPLINE
  5
165
100
AcDbEntity
  8
0
 62
7
100
AcDbSpline
 70
8
 71
3
 72
8
 73
4
 74
0
 40
0
 40
0
 40
0
 40
0
 40
1
 40
1
 40
1
 40
1
 10
323.019140
 20
711.888976
 30
0.0
 10
324.140163
 20
712.353319
 30
0.0
 10
324.871090
 20
713.447228
 30
0.0
 10
324.871090
 20
714.660615
 30
0.0
  0
SPLINE
  5
166
100
AcDbEntity
  8
0
 62
7
100
AcDbSpline
 70
8
 71
3
 72
8
 73
4
 74
0
 40
0
 40
0
 40
0
 40
0
 40
1
 40
1
 40
1
 40
1
 10
324.871090
 20
714.660615
 30
0.0
 10
324.871090
 20
715.456265
 30
0.0
 10
324.555019
 20
716.219326
 30
0.0
 10
323.992410
 20
716.781935
 30
0.0
  0
SPLINE
  5
167
100
AcDbEntity
  8
0
 62
7
100
AcDbSpline
 70
8
 71
3
 72
8
 73
4
 74
0
 40
0
 40
0
 40
0
 40
0
 40
1
 40
1
 40
1
 40
1
 10
323.992410
 20
716.781935
 30
0.0
 10
323.429801
 20
717.344545
 30
0.0
 10
322.666739
 20
717.660615
 30
0.0
 10
321.871090
 20
717.660615
 30
0.0
  0
LWPOLYLINE
  5
168
100
AcDbEntity
  8
0
 62
7
100
AcDbPolyline
 90
1
 70
1
 10
172.585820
 20
699.268645
 30
0.0
  0
SPLINE
  5
169
100
AcDbEntity
  8
0
 62
7
100
AcDbSpline
 70
8
 71
3
 72
8
 73
4
 74
0
 40
0
 40
0
 40
0
 40
0
 40
1
 40
1
 40
1
 40
1
 10
492.199250
 20
716.353185
 30
0.0
 10
490.985863
 20
716.353185
 30
0.0
 10
489.891954
 20
715.622259
 30
0.0
 10
489.427611
 20
714.501235
 30
0.0
  0
SPLINE
  5
16a
100
AcDbEntity
  8
0
 62
7
100
AcDbSpline
 70
8
 71
3
 72
8
 73
4
 74
0
 40
0
 40
0
 40
0
 40
0
 40
1
 40
1
 40
1
 40
1
 10
489.427611
 20
714.501235
 30
0.0
 10
488.963268
 20
713.380212
 30
0.0
 10
489.219936
 20
712.089859
 30
0.0
 10
490.077930
 20
711.231865
 30
0.0
  0
SPLINE
  5
16b
100
AcDbEntity
  8
0
 62
7
100
AcDbSpline
 70
8
 71
3
 72
8
 73
4
 74
0
 40
0
 40
0
 40
0
 40
0
 40
1
 40
1
 40
1
 40
1
 10
490.077930
 20
711.231865
 30
0.0
 10
490.935924
 20
710.373871
 30
0.0
 10
492.226277
 20
710.117203
 30
0.0
 10
493.347300
 20
710.581546
 30
0.0
  0
SPLINE
  5
16c
100
AcDbEntity
  8
0
 62
7
100
AcDbSpline
 70
8
 71
3
 72
8
 73
4
 74
0
 40
0
 40
0
 40
0
 40
0
 40
1
 40
1
 40
1
 40
1
 10
493.347300
 20
710.581546
 30
0.0
 10
494.468323
 20
711.045889
 30
0.0
 10
495.199250
 20
712.139798
 30
0.0
 10
495.199250
 20
713.353185
 30
0.0
  0
SPLINE
  5
16d
100
AcDbEntity
  8
0
 62
7
100
AcDbSpline
 70
8
 71
3
 72
8
 73
4
 74
0
 40
0
 40
0
 40
0
 40
0
 40
1
 40
1
 40
1
 40
1
 10
495.199250
 20
713.353185
 30
0.0
 10
495.199250
 20
714.148835
 30
0.0
 10
494.883179
 20
714.911896
 30
0.0
 10
494.320570
 20
715.474505
 30
0.0
  0
SPLINE
  5
16e
100
AcDbEntity
  8
0
 62
7
100
AcDbSpline
 70
8
 71
3
 72
8
 73
4
 74
0
 40
0
 40
0
 40
0
 40
0
 40
1
 40
1
 40
1
 40
1
 10
494.320570
 20
715.474505
 30
0.0
 10
493.757961
 20
716.037115
 30
0.0
 10
492.994899
 20
716.353185
 30
0.0
 10
492.199250
 20
716.353185
 30
0.0
  0
LWPOLYLINE
  5
16f
100
AcDbEntity
  8
0
 62
7
100
AcDbPolyline
 90
1
 70
1
 10
321.871090
 20
717.660615
 30
0.0
  0
LWPOLYLINE
  5
170
100
AcDbEntity
  8
0
 62
7
100
AcDbPolyline
 90
1
 70
1
 10
492.199250
 20
716.353185
 30
0.0
  0
ENDSEC
  0
SECTION
  2
OBJECTS
  0
DICTIONARY
  5
C
330
0
100
AcDbDictionary
  3
ACAD_GROUP
350
D
  3
ACAD_MLINESTYLE
350
17
  0
DICTIONARY
  5
D
330
C
100
AcDbDictionary
  0
DICTIONARY
  5
1A
330
C
100
AcDbDictionary
  0
DICTIONARY
  5
17
330
C
100
AcDbDictionary
  3
STANDARD
350
18
  0
DICTIONARY
  5
19
330
C
100
AcDbDictionary
  0
ENDSEC
  0
EOF
