  0
SECTION
  2
HEADER
  9
$ACADVER
  1
AC1014
  9
$HANDSEED
  5
FFFF
  9
$INSUNITS
 70
     0
  9
$MEASUREMENT
 70
     1
  0
ENDSEC
  0
SECTION
  2
TABLES
  0
TABLE
  2
VPORT
  5
8
330
0
100
AcDbSymbolTable
 70
     4
  0
VPORT
  5
2E
330
8
100
AcDbSymbolTableRecord
100
AcDbViewportTableRecord
  2
*ACTIVE
 70
     0
 10
0.0
 20
0.0
 11
1.0
 21
1.0
 12
210.0
 22
148.5
 13
0.0
 23
0.0
 14
10.0
 24
10.0
 15
10.0
 25
10.0
 16
0.0
 26
0.0
 36
1.0
 17
0.0
 27
0.0
 37
0.0
 40
341.0
 41
1.24
 42
50.0
 43
0.0
 44
0.0
 50
0.0
 51
0.0
 71
     0
 72
   100
 73
     1
 74
     3
 75
     0
 76
     0
 77
     0
 78
     0
  0
ENDTAB
  0
TABLE
  2
LTYPE
  5
5
330
0
100
AcDbSymbolTable
 70
     1
  0
LTYPE
  5
14
330
5
100
AcDbSymbolTableRecord
100
AcDbLinetypeTableRecord
  2
BYBLOCK
 70
     0
  3

 72
    65
 73
     0
 40
0.0
  0
LTYPE
  5
15
330
5
100
AcDbSymbolTableRecord
100
AcDbLinetypeTableRecord
  2
BYLAYER
 70
     0
  3

 72
    65
 73
     0
 40
0.0
  0
LTYPE
  5
16
330
5
100
AcDbSymbolTableRecord
100
AcDbLinetypeTableRecord
  2
CONTINUOUS
 70
     0
  3
Solid line
 72
    65
 73
     0
 40
0.0
  0
ENDTAB
  0
TABLE
  2
LAYER
  5
2
100
AcDbSymbolTable
 70
4
  0
LAYER
  5
50
100
AcDbSymbolTableRecord
100
AcDbLayerTableRecord
  2
0
 70
0
  6
CONTINUOUS
  0
LAYER
  5
51
100
AcDbSymbolTableRecord
100
AcDbLayerTableRecord
  2
keyholes
 70
0
  6
CONTINUOUS
  0
LAYER
  5
52
100
AcDbSymbolTableRecord
100
AcDbLayerTableRecord
  2
plate
 70
0
  6
CONTINUOUS
  0
LAYER
  5
53
100
AcDbSymbolTableRecord
100
AcDbLayerTableRecord
  2
screw_holes
 70
0
  6
CONTINUOUS
  0
ENDTAB
  0
TABLE
  2
STYLE
  5
3
330
0
100
AcDbSymbolTable
 70
     1
  0
STYLE
  5
11
330
3
100
AcDbSymbolTableRecord
100
AcDbTextStyleTableRecord
  2
STANDARD
 70
     0
 40
0.0
 41
1.0
 50
0.0
 71
     0
 42
2.5
  3
txt
  4

  0
ENDTAB
  0
TABLE
  2
VIEW
  5
6
330
0
100
AcDbSymbolTable
 70
     0
  0
ENDTAB
  0
TABLE
  2
UCS
  5
7
330
0
100
AcDbSymbolTable
 70
     0
  0
ENDTAB
  0
TABLE
  2
APPID
  5
9
330
0
100
AcDbSymbolTable
 70
     2
  0
APPID
  5
12
330
9
100
AcDbSymbolTableRecord
100
AcDbRegAppTableRecord
  2
ACAD
 70
     0
  0
ENDTAB
  0
TABLE
  2
DIMSTYLE
  5
A
330
0
100
AcDbSymbolTable
 70
     1
  0
DIMSTYLE
105
27
330
A
100
AcDbSymbolTableRecord
100
AcDbDimStyleTableRecord
  2
ISO-25
 70
     0
  3

  4

  5

  6

  7

 40
1.0
 41
2.5
 42
0.625
 43
3.75
 44
1.25
 45
0.0
 46
0.0
 47
0.0
 48
0.0
140
2.5
141
2.5
142
0.0
143
0.03937007874016
144
1.0
145
0.0
146
1.0
147
0.625
 71
     0
 72
     0
 73
     0
 74
     0
 75
     0
 76
     0
 77
     1
 78
     8
170
     0
171
     3
172
     1
173
     0
174
     0
175
     0
176
     0
177
     0
178
     0
270
     2
271
     2
272
     2
273
     2
274
     3
340
11
275
     0
280
     0
281
     0
282
     0
283
     0
284
     8
285
     0
286
     0
287
     3
288
     0
  0
ENDTAB
  0
TABLE
  2
BLOCK_RECORD
  5
1
330
0
100
AcDbSymbolTable
 70
     1
  0
BLOCK_RECORD
  5
1F
330
1
100
AcDbSymbolTableRecord
100
AcDbBlockTableRecord
  2
*MODEL_SPACE
  0
BLOCK_RECORD
  5
1B
330
1
100
AcDbSymbolTableRecord
100
AcDbBlockTableRecord
  2
*PAPER_SPACE
  0
ENDTAB
  0
ENDSEC
  0
SECTION
  2
BLOCKS
  0
BLOCK
  5
20
330
1F
100
AcDbEntity
  8
0
100
AcDbBlockBegin
  2
*MODEL_SPACE
 70
     0
 10
0.0
 20
0.0
 30
0.0
  3
*MODEL_SPACE
  1

  0
ENDBLK
  5
21
330
1F
100
AcDbEntity
  8
0
100
AcDbBlockEnd
  0
BLOCK
  5
1C
330
1B
100
AcDbEntity
 67
     1
  8
0
100
AcDbBlockBegin
  2
*PAPER_SPACE
  1

  0
ENDBLK
  5
1D
330
1B
100
AcDbEntity
 67
     1
  8
0
100
AcDbBlockEnd
  0
ENDSEC
  0
SECTION
  2
ENTITIES
  0
LWPOLYLINE
  5
100
100
AcDbEntity
  8
keyholes
 62
7
100
AcDbPolyline
 90
4
 70
1
 10
587.296030
 20
435.800185
 30
0.0
 10
633.119030
 20
409.340185
 30
0.0
 10
659.576030
 20
455.170185
 30
0.0
 10
613.753030
 20
481.620185
 30
0.0
  0
LWPOLYLINE
  5
101
100
AcDbEntity
  8
keyholes
 62
7
100
AcDbPolyline
 90
4
 70
1
 10
524.942030
 20
471.800185
 30
0.0
 10
570.768030
 20
445.340185
 30
0.0
 10
597.229030
 20
491.170185
 30
0.0
 10
551.395030
 20
517.623185
 30
0.0
  0
LWPOLYLINE
  5
102
100
AcDbEntity
  8
keyholes
 62
7
100
AcDbPolyline
 90
4
 70
1
 10
623.296030
 20
498.150185
 30
0.0
 10
669.119030
 20
471.690185
 30
0.0
 10
695.576030
 20
517.519185
 30
0.0
 10
649.753030
 20
543.978185
 30
0.0
  0
LWPOLYLINE
  5
103
100
AcDbEntity
  8
keyholes
 62
7
100
AcDbPolyline
 90
4
 70
1
 10
462.587030
 20
507.800185
 30
0.0
 10
508.414030
 20
481.340185
 30
0.0
 10
534.874030
 20
527.166185
 30
0.0
 10
489.047030
 20
553.623185
 30
0.0
  0
LWPOLYLINE
  5
104
100
AcDbEntity
  8
keyholes
 62
7
100
AcDbPolyline
 90
4
 70
1
 10
143.452030
 20
543.289185
 30
0.0
 10
196.369030
 20
543.289185
 30
0.0
 10
196.369030
 20
490.380185
 30
0.0
 10
143.452030
 20
490.380185
 30
0.0
  0
LWPOLYLINE
  5
105
100
AcDbEntity
  8
keyholes
 62
7
100
AcDbPolyline
 90
4
 70
1
 10
215.452030
 20
543.289185
 30
0.0
 10
268.363030
 20
543.289185
 30
0.0
 10
268.363030
 20
490.380185
 30
0.0
 10
215.452030
 20
490.380185
 30
0.0
  0
LWPOLYLINE
  5
106
100
AcDbEntity
  8
keyholes
 62
7
100
AcDbPolyline
 90
4
 70
1
 10
560.942030
 20
534.150185
 30
0.0
 10
606.768030
 20
507.691185
 30
0.0
 10
633.229030
 20
553.519185
 30
0.0
 10
587.402030
 20
579.978185
 30
0.0
  0
LWPOLYLINE
  5
107
100
AcDbEntity
  8
keyholes
 62
7
100
AcDbPolyline
 90
4
 70
1
 10
287.452030
 20
561.289185
 30
0.0
 10
340.368030
 20
561.289185
 30
0.0
 10
340.368030
 20
508.379185
 30
0.0
 10
287.452030
 20
508.379185
 30
0.0
  0
LWPOLYLINE
  5
108
100
AcDbEntity
  8
keyholes
 62
7
100
AcDbPolyline
 90
4
 70
1
 10
359.452030
 20
570.290185
 30
0.0
 10
412.368030
 20
570.290185
 30
0.0
 10
412.368030
 20
517.374185
 30
0.0
 10
359.452030
 20
517.374185
 30
0.0
  0
LWPOLYLINE
  5
109
100
AcDbEntity
  8
keyholes
 62
7
100
AcDbPolyline
 90
4
 70
1
 10
143.452030
 20
614.931185
 30
0.0
 10
196.369030
 20
614.931185
 30
0.0
 10
196.369030
 20
562.019185
 30
0.0
 10
143.452030
 20
562.019185
 30
0.0
  0
LWPOLYLINE
  5
10a
100
AcDbEntity
  8
keyholes
 62
7
100
AcDbPolyline
 90
4
 70
1
 10
215.452030
 20
615.289185
 30
0.0
 10
268.368030
 20
615.289185
 30
0.0
 10
268.368030
 20
562.379185
 30
0.0
 10
215.452030
 20
562.379185
 30
0.0
  0
LWPOLYLINE
  5
10b
100
AcDbEntity
  8
keyholes
 62
7
100
AcDbPolyline
 90
4
 70
1
 10
503.451030
 20
624.290185
 30
0.0
 10
556.368030
 20
624.290185
 30
0.0
 10
556.368030
 20
571.379185
 30
0.0
 10
503.451030
 20
571.379185
 30
0.0
  0
LWPOLYLINE
  5
10c
100
AcDbEntity
  8
keyholes
 62
7
100
AcDbPolyline
 90
4
 70
1
 10
287.452030
 20
633.289185
 30
0.0
 10
340.368030
 20
633.289185
 30
0.0
 10
340.368030
 20
580.379185
 30
0.0
 10
287.452030
 20
580.379185
 30
0.0
  0
LWPOLYLINE
  5
10d
100
AcDbEntity
  8
keyholes
 62
7
100
AcDbPolyline
 90
4
 70
1
 10
431.452030
 20
633.289185
 30
0.0
 10
484.368030
 20
633.289185
 30
0.0
 10
484.368030
 20
580.379185
 30
0.0
 10
431.452030
 20
580.379185
 30
0.0
  0
LWPOLYLINE
  5
10e
100
AcDbEntity
  8
keyholes
 62
7
100
AcDbPolyline
 90
4
 70
1
 10
359.452030
 20
642.290185
 30
0.0
 10
412.368030
 20
642.290185
 30
0.0
 10
412.368030
 20
589.374185
 30
0.0
 10
359.452030
 20
589.374185
 30
0.0
  0
LWPOLYLINE
  5
10f
100
AcDbEntity
  8
keyholes
 62
7
100
AcDbPolyline
 90
4
 70
1
 10
575.451030
 20
660.290185
 30
0.0
 10
628.368030
 20
660.290185
 30
0.0
 10
628.368030
 20
607.379185
 30
0.0
 10
575.451030
 20
607.379185
 30
0.0
  0
LWPOLYLINE
  5
110
100
AcDbEntity
  8
keyholes
 62
7
100
AcDbPolyline
 90
4
 70
1
 10
143.452030
 20
686.931185
 30
0.0
 10
196.369030
 20
686.931185
 30
0.0
 10
196.369030
 20
634.014185
 30
0.0
 10
143.452030
 20
634.014185
 30
0.0
  0
LWPOLYLINE
  5
111
100
AcDbEntity
  8
keyholes
 62
7
100
AcDbPolyline
 90
4
 70
1
 10
215.452030
 20
687.289185
 30
0.0
 10
268.368030
 20
687.289185
 30
0.0
 10
268.368030
 20
634.379185
 30
0.0
 10
215.452030
 20
634.379185
 30
0.0
  0
LWPOLYLINE
  5
112
100
AcDbEntity
  8
keyholes
 62
7
100
AcDbPolyline
 90
4
 70
1
 10
503.451030
 20
696.290185
 30
0.0
 10
556.368030
 20
696.290185
 30
0.0
 10
556.368030
 20
643.379185
 30
0.0
 10
503.451030
 20
643.379185
 30
0.0
  0
LWPOLYLINE
  5
113
100
AcDbEntity
  8
keyholes
 62
7
100
AcDbPolyline
 90
4
 70
1
 10
287.452030
 20
705.289185
 30
0.0
 10
340.368030
 20
705.289185
 30
0.0
 10
340.368030
 20
652.379185
 30
0.0
 10
287.452030
 20
652.379185
 30
0.0
  0
LWPOLYLINE
  5
114
100
AcDbEntity
  8
keyholes
 62
7
100
AcDbPolyline
 90
4
 70
1
 10
431.452030
 20
705.289185
 30
0.0
 10
484.368030
 20
705.289185
 30
0.0
 10
484.368030
 20
652.379185
 30
0.0
 10
431.452030
 20
652.379185
 30
0.0
  0
LWPOLYLINE
  5
115
100
AcDbEntity
  8
keyholes
 62
7
100
AcDbPolyline
 90
4
 70
1
 10
359.452030
 20
714.290185
 30
0.0
 10
412.368030
 20
714.290185
 30
0.0
 10
412.368030
 20
661.374185
 30
0.0
 10
359.452030
 20
661.374185
 30
0.0
  0
LWPOLYLINE
  5
116
100
AcDbEntity
  8
keyholes
 62
7
100
AcDbPolyline
 90
4
 70
1
 10
575.451030
 20
732.290185
 30
0.0
 10
628.368030
 20
732.290185
 30
0.0
 10
628.368030
 20
679.379185
 30
0.0
 10
575.451030
 20
679.379185
 30
0.0
  0
LWPOLYLINE
  5
117
100
AcDbEntity
  8
keyholes
 62
7
100
AcDbPolyline
 90
4
 70
1
 10
143.452030
 20
758.931185
 30
0.0
 10
196.369030
 20
758.931185
 30
0.0
 10
196.369030
 20
706.014185
 30
0.0
 10
143.452030
 20
706.014185
 30
0.0
  0
LWPOLYLINE
  5
118
100
AcDbEntity
  8
keyholes
 62
7
100
AcDbPolyline
 90
4
 70
1
 10
215.452030
 20
759.290185
 30
0.0
 10
268.368030
 20
759.290185
 30
0.0
 10
268.368030
 20
706.379185
 30
0.0
 10
215.452030
 20
706.379185
 30
0.0
  0
LWPOLYLINE
  5
119
100
AcDbEntity
  8
keyholes
 62
7
100
AcDbPolyline
 90
4
 70
1
 10
503.451030
 20
768.289185
 30
0.0
 10
556.368030
 20
768.289185
 30
0.0
 10
556.368030
 20
715.379185
 30
0.0
 10
503.451030
 20
715.379185
 30
0.0
  0
LWPOLYLINE
  5
11a
100
AcDbEntity
  8
keyholes
 62
7
100
AcDbPolyline
 90
4
 70
1
 10
287.452030
 20
777.288185
 30
0.0
 10
340.368030
 20
777.288185
 30
0.0
 10
340.368030
 20
724.379185
 30
0.0
 10
287.452030
 20
724.379185
 30
0.0
  0
LWPOLYLINE
  5
11b
100
AcDbEntity
  8
keyholes
 62
7
100
AcDbPolyline
 90
4
 70
1
 10
431.452030
 20
777.288185
 30
0.0
 10
484.368030
 20
777.288185
 30
0.0
 10
484.368030
 20
724.379185
 30
0.0
 10
431.452030
 20
724.379185
 30
0.0
  0
LWPOLYLINE
  5
11c
100
AcDbEntity
  8
keyholes
 62
7
100
AcDbPolyline
 90
4
 70
1
 10
359.452030
 20
786.291185
 30
0.0
 10
412.368030
 20
786.291185
 30
0.0
 10
412.368030
 20
733.374185
 30
0.0
 10
359.452030
 20
733.374185
 30
0.0
  0
LWPOLYLINE
  5
11d
100
AcDbEntity
  8
keyholes
 62
7
100
AcDbPolyline
 90
4
 70
1
 10
575.451030
 20
804.289185
 30
0.0
 10
628.368030
 20
804.289185
 30
0.0
 10
628.368030
 20
751.379185
 30
0.0
 10
575.451030
 20
751.379185
 30
0.0
  0
LWPOLYLINE
  5
11e
100
AcDbEntity
  8
keyholes
 62
7
100
AcDbPolyline
 90
4
 70
1
 10
143.452030
 20
830.931185
 30
0.0
 10
196.369030
 20
830.931185
 30
0.0
 10
196.369030
 20
778.014185
 30
0.0
 10
143.452030
 20
778.014185
 30
0.0
  0
LWPOLYLINE
  5
11f
100
AcDbEntity
  8
keyholes
 62
7
100
AcDbPolyline
 90
4
 70
1
 10
215.452030
 20
831.290185
 30
0.0
 10
268.368030
 20
831.290185
 30
0.0
 10
268.368030
 20
778.381185
 30
0.0
 10
215.452030
 20
778.381185
 30
0.0
  0
LWPOLYLINE
  5
120
100
AcDbEntity
  8
keyholes
 62
7
100
AcDbPolyline
 90
4
 70
1
 10
503.451030
 20
840.289185
 30
0.0
 10
556.368030
 20
840.289185
 30
0.0
 10
556.368030
 20
787.380185
 30
0.0
 10
503.451030
 20
787.380185
 30
0.0
  0
LWPOLYLINE
  5
121
100
AcDbEntity
  8
keyholes
 62
7
100
AcDbPolyline
 90
4
 70
1
 10
287.452030
 20
849.288185
 30
0.0
 10
340.368030
 20
849.288185
 30
0.0
 10
340.368030
 20
796.379185
 30
0.0
 10
287.452030
 20
796.379185
 30
0.0
  0
LWPOLYLINE
  5
122
100
AcDbEntity
  8
keyholes
 62
7
100
AcDbPolyline
 90
4
 70
1
 10
431.452030
 20
849.288185
 30
0.0
 10
484.368030
 20
849.288185
 30
0.0
 10
484.368030
 20
796.379185
 30
0.0
 10
431.452030
 20
796.379185
 30
0.0
  0
LWPOLYLINE
  5
123
100
AcDbEntity
  8
keyholes
 62
7
100
AcDbPolyline
 90
4
 70
1
 10
359.452030
 20
858.291185
 30
0.0
 10
412.368030
 20
858.291185
 30
0.0
 10
412.368030
 20
805.374185
 30
0.0
 10
359.452030
 20
805.374185
 30
0.0
  0
SPLINE
  5
124
100
AcDbEntity
  8
screw_holes
 62
7
100
AcDbSpline
 70
8
 71
3
 72
8
 73
4
 74
0
 40
0
 40
0
 40
0
 40
0
 40
1
 40
1
 40
1
 40
1
 10
169.681580
 20
628.651049
 30
0.0
 10
167.716139
 20
628.651049
 30
0.0
 10
165.944228
 20
627.467096
 30
0.0
 10
165.192087
 20
625.651265
 30
0.0
  0
SPLINE
  5
125
100
AcDbEntity
  8
screw_holes
 62
7
100
AcDbSpline
 70
8
 71
3
 72
8
 73
4
 74
0
 40
0
 40
0
 40
0
 40
0
 40
1
 40
1
 40
1
 40
1
 10
165.192087
 20
625.651265
 30
0.0
 10
164.439945
 20
623.835434
 30
0.0
 10
164.855694
 20
621.745321
 30
0.0
 10
166.245471
 20
620.355545
 30
0.0
  0
SPLINE
  5
126
100
AcDbEntity
  8
screw_holes
 62
7
100
AcDbSpline
 70
8
 71
3
 72
8
 73
4
 74
0
 40
0
 40
0
 40
0
 40
0
 40
1
 40
1
 40
1
 40
1
 10
166.245471
 20
620.355545
 30
0.0
 10
167.635247
 20
618.965768
 30
0.0
 10
169.725358
 20
618.550018
 30
0.0
 10
171.541189
 20
619.302160
 30
0.0
  0
SPLINE
  5
127
100
AcDbEntity
  8
screw_holes
 62
7
100
AcDbSpline
 70
8
 71
3
 72
8
 73
4
 74
0
 40
0
 40
0
 40
0
 40
0
 40
1
 40
1
 40
1
 40
1
 10
171.541189
 20
619.302160
 30
0.0
 10
173.357020
 20
620.054302
 30
0.0
 10
174.540973
 20
621.826214
 30
0.0
 10
174.540973
 20
623.791655
 30
0.0
  0
SPLINE
  5
128
100
AcDbEntity
  8
screw_holes
 62
7
100
AcDbSpline
 70
8
 71
3
 72
8
 73
4
 74
0
 40
0
 40
0
 40
0
 40
0
 40
1
 40
1
 40
1
 40
1
 10
174.540973
 20
623.791655
 30
0.0
 10
174.540973
 20
625.080446
 30
0.0
 10
174.029002
 20
626.316452
 30
0.0
 10
173.117689
 20
627.227766
 30
0.0
  0
SPLINE
  5
129
100
AcDbEntity
  8
screw_holes
 62
7
100
AcDbSpline
 70
8
 71
3
 72
8
 73
4
 74
0
 40
0
 40
0
 40
0
 40
0
 40
1
 40
1
 40
1
 40
1
 10
173.117689
 20
627.227766
 30
0.0
 10
172.206377
 20
628.139079
 30
0.0
 10
170.970371
 20
628.651049
 30
0.0
 10
169.681580
 20
628.651049
 30
0.0
  0
LWPOLYLINE
  5
12a
100
AcDbEntity
  8
plate
 62
7
100
AcDbPolyline
 90
13
 70
1
 10
122.374130
 20
854.576315
 30
0.0
 10
263.144380
 20
854.576315
 30
0.0
 10
305.674110
 20
879.130865
 30
0.0
 10
503.893490
 20
879.130865
 30
0.0
 10
530.567720
 20
852.456635
 30
0.0
 10
586.276080
 20
852.456635
 30
0.0
 10
650.782600
 20
815.213775
 30
0.0
 10
650.782600
 20
576.235155
 30
0.0
 10
734.252270
 20
528.043915
 30
0.0
 10
645.367200
 20
374.090455
 30
0.0
 10
460.044570
 20
481.086525
 30
0.0
 10
121.574300
 20
481.086525
 30
0.0
 10
121.574300
 20
853.776485
 30
0.0
  0
SPLINE
  5
12b
100
AcDbEntity
  8
screw_holes
 62
7
100
AcDbSpline
 70
8
 71
3
 72
8
 73
4
 74
0
 40
0
 40
0
 40
0
 40
0
 40
1
 40
1
 40
1
 40
1
 10
169.681580
 20
556.651049
 30
0.0
 10
167.716139
 20
556.651049
 30
0.0
 10
165.944228
 20
555.467096
 30
0.0
 10
165.192087
 20
553.651265
 30
0.0
  0
SPLINE
  5
12c
100
AcDbEntity
  8
screw_holes
 62
7
100
AcDbSpline
 70
8
 71
3
 72
8
 73
4
 74
0
 40
0
 40
0
 40
0
 40
0
 40
1
 40
1
 40
1
 40
1
 10
165.192087
 20
553.651265
 30
0.0
 10
164.439945
 20
551.835434
 30
0.0
 10
164.855694
 20
549.745321
 30
0.0
 10
166.245471
 20
548.355545
 30
0.0
  0
SPLINE
  5
12d
100
AcDbEntity
  8
screw_holes
 62
7
100
AcDbSpline
 70
8
 71
3
 72
8
 73
4
 74
0
 40
0
 40
0
 40
0
 40
0
 40
1
 40
1
 40
1
 40
1
 10
166.245471
 20
548.355545
 30
0.0
 10
167.635247
 20
546.965768
 30
0.0
 10
169.725358
 20
546.550018
 30
0.0
 10
171.541189
 20
547.302160
 30
0.0
  0
SPLINE
  5
12e
100
AcDbEntity
  8
screw_holes
 62
7
100
AcDbSpline
 70
8
 71
3
 72
8
 73
4
 74
0
 40
0
 40
0
 40
0
 40
0
 40
1
 40
1
 40
1
 40
1
 10
171.541189
 20
547.302160
 30
0.0
 10
173.357020
 20
548.054302
 30
0.0
 10
174.540973
 20
549.826214
 30
0.0
 10
174.540973
 20
551.791655
 30
0.0
  0
SPLINE
  5
12f
100
AcDbEntity
  8
screw_holes
 62
7
100
AcDbSpline
 70
8
 71
3
 72
8
 73
4
 74
0
 40
0
 40
0
 40
0
 40
0
 40
1
 40
1
 40
1
 40
1
 10
174.540973
 20
551.791655
 30
0.0
 10
174.540973
 20
553.080446
 30
0.0
 10
174.029002
 20
554.316452
 30
0.0
 10
173.117689
 20
555.227766
 30
0.0
  0
SPLINE
  5
130
100
AcDbEntity
  8
screw_holes
 62
7
100
AcDbSpline
 70
8
 71
3
 72
8
 73
4
 74
0
 40
0
 40
0
 40
0
 40
0
 40
1
 40
1
 40
1
 40
1
 10
173.117689
 20
555.227766
 30
0.0
 10
172.206377
 20
556.139079
 30
0.0
 10
170.970371
 20
556.651049
 30
0.0
 10
169.681580
 20
556.651049
 30
0.0
  0
LWPOLYLINE
  5
131
100
AcDbEntity
  8
screw_holes
 62
7
100
AcDbPolyline
 90
1
 70
1
 10
169.681580
 20
628.651049
 30
0.0
  0
SPLINE
  5
132
100
AcDbEntity
  8
screw_holes
 62
7
100
AcDbSpline
 70
8
 71
3
 72
8
 73
4
 74
0
 40
0
 40
0
 40
0
 40
0
 40
1
 40
1
 40
1
 40
1
 10
169.681580
 20
773.163599
 30
0.0
 10
167.716139
 20
773.163599
 30
0.0
 10
165.944228
 20
771.979646
 30
0.0
 10
165.192087
 20
770.163815
 30
0.0
  0
SPLINE
  5
133
100
AcDbEntity
  8
screw_holes
 62
7
100
AcDbSpline
 70
8
 71
3
 72
8
 73
4
 74
0
 40
0
 40
0
 40
0
 40
0
 40
1
 40
1
 40
1
 40
1
 10
165.192087
 20
770.163815
 30
0.0
 10
164.439945
 20
768.347984
 30
0.0
 10
164.855694
 20
766.257871
 30
0.0
 10
166.245471
 20
764.868095
 30
0.0
  0
SPLINE
  5
134
100
AcDbEntity
  8
screw_holes
 62
7
100
AcDbSpline
 70
8
 71
3
 72
8
 73
4
 74
0
 40
0
 40
0
 40
0
 40
0
 40
1
 40
1
 40
1
 40
1
 10
166.245471
 20
764.868095
 30
0.0
 10
167.635247
 20
763.478318
 30
0.0
 10
169.725358
 20
763.062568
 30
0.0
 10
171.541189
 20
763.814710
 30
0.0
  0
SPLINE
  5
135
100
AcDbEntity
  8
screw_holes
 62
7
100
AcDbSpline
 70
8
 71
3
 72
8
 73
4
 74
0
 40
0
 40
0
 40
0
 40
0
 40
1
 40
1
 40
1
 40
1
 10
171.541189
 20
763.814710
 30
0.0
 10
173.357020
 20
764.566852
 30
0.0
 10
174.540973
 20
766.338764
 30
0.0
 10
174.540973
 20
768.304205
 30
0.0
  0
SPLINE
  5
136
100
AcDbEntity
  8
screw_holes
 62
7
100
AcDbSpline
 70
8
 71
3
 72
8
 73
4
 74
0
 40
0
 40
0
 40
0
 40
0
 40
1
 40
1
 40
1
 40
1
 10
174.540973
 20
768.304205
 30
0.0
 10
174.540973
 20
769.592996
 30
0.0
 10
174.029002
 20
770.829002
 30
0.0
 10
173.117689
 20
771.740316
 30
0.0
  0
SPLINE
  5
137
100
AcDbEntity
  8
screw_holes
 62
7
100
AcDbSpline
 70
8
 71
3
 72
8
 73
4
 74
0
 40
0
 40
0
 40
0
 40
0
 40
1
 40
1
 40
1
 40
1
 10
173.117689
 20
771.740316
 30
0.0
 10
172.206377
 20
772.651629
 30
0.0
 10
170.970371
 20
773.163599
 30
0.0
 10
169.681580
 20
773.163599
 30
0.0
  0
LWPOLYLINE
  5
138
100
AcDbEntity
  8
screw_holes
 62
7
100
AcDbPolyline
 90
1
 70
1
 10
169.681580
 20
556.651049
 30
0.0
  0
SPLINE
  5
139
100
AcDbEntity
  8
screw_holes
 62
7
100
AcDbSpline
 70
8
 71
3
 72
8
 73
4
 74
0
 40
0
 40
0
 40
0
 40
0
 40
1
 40
1
 40
1
 40
1
 10
349.681580
 20
793.163599
 30
0.0
 10
347.716139
 20
793.163599
 30
0.0
 10
345.944228
 20
791.979646
 30
0.0
 10
345.192087
 20
790.163815
 30
0.0
  0
SPLINE
  5
13a
100
AcDbEntity
  8
screw_holes
 62
7
100
AcDbSpline
 70
8
 71
3
 72
8
 73
4
 74
0
 40
0
 40
0
 40
0
 40
0
 40
1
 40
1
 40
1
 40
1
 10
345.192087
 20
790.163815
 30
0.0
 10
344.439945
 20
788.347984
 30
0.0
 10
344.855694
 20
786.257871
 30
0.0
 10
346.245471
 20
784.868095
 30
0.0
  0
SPLINE
  5
13b
100
AcDbEntity
  8
screw_holes
 62
7
100
AcDbSpline
 70
8
 71
3
 72
8
 73
4
 74
0
 40
0
 40
0
 40
0
 40
0
 40
1
 40
1
 40
1
 40
1
 10
346.245471
 20
784.868095
 30
0.0
 10
347.635247
 20
783.478318
 30
0.0
 10
349.725358
 20
783.062568
 30
0.0
 10
351.541189
 20
783.814710
 30
0.0
  0
SPLINE
  5
13c
100
AcDbEntity
  8
screw_holes
 62
7
100
AcDbSpline
 70
8
 71
3
 72
8
 73
4
 74
0
 40
0
 40
0
 40
0
 40
0
 40
1
 40
1
 40
1
 40
1
 10
351.541189
 20
783.814710
 30
0.0
 10
353.357020
 20
784.566852
 30
0.0
 10
354.540973
 20
786.338764
 30
0.0
 10
354.540973
 20
788.304205
 30
0.0
  0
SPLINE
  5
13d
100
AcDbEntity
  8
screw_holes
 62
7
100
AcDbSpline
 70
8
 71
3
 72
8
 73
4
 74
0
 40
0
 40
0
 40
0
 40
0
 40
1
 40
1
 40
1
 40
1
 10
354.540973
 20
788.304205
 30
0.0
 10
354.540973
 20
789.592996
 30
0.0
 10
354.029002
 20
790.829002
 30
0.0
 10
353.117689
 20
791.740316
 30
0.0
  0
SPLINE
  5
13e
100
AcDbEntity
  8
screw_holes
 62
7
100
AcDbSpline
 70
8
 71
3
 72
8
 73
4
 74
0
 40
0
 40
0
 40
0
 40
0
 40
1
 40
1
 40
1
 40
1
 10
353.117689
 20
791.740316
 30
0.0
 10
352.206377
 20
792.651629
 30
0.0
 10
350.970371
 20
793.163599
 30
0.0
 10
349.681580
 20
793.163599
 30
0.0
  0
LWPOLYLINE
  5
13f
100
AcDbEntity
  8
screw_holes
 62
7
100
AcDbPolyline
 90
1
 70
1
 10
169.681580
 20
773.163599
 30
0.0
  0
SPLINE
  5
140
100
AcDbEntity
  8
screw_holes
 62
7
100
AcDbSpline
 70
8
 71
3
 72
8
 73
4
 74
0
 40
0
 40
0
 40
0
 40
0
 40
1
 40
1
 40
1
 40
1
 10
349.681580
 20
673.163599
 30
0.0
 10
347.716139
 20
673.163599
 30
0.0
 10
345.944228
 20
671.979646
 30
0.0
 10
345.192087
 20
670.163815
 30
0.0
  0
SPLINE
  5
141
100
AcDbEntity
  8
screw_holes
 62
7
100
AcDbSpline
 70
8
 71
3
 72
8
 73
4
 74
0
 40
0
 40
0
 40
0
 40
0
 40
1
 40
1
 40
1
 40
1
 10
345.192087
 20
670.163815
 30
0.0
 10
344.439945
 20
668.347984
 30
0.0
 10
344.855694
 20
666.257871
 30
0.0
 10
346.245471
 20
664.868095
 30
0.0
  0
SPLINE
  5
142
100
AcDbEntity
  8
screw_holes
 62
7
100
AcDbSpline
 70
8
 71
3
 72
8
 73
4
 74
0
 40
0
 40
0
 40
0
 40
0
 40
1
 40
1
 40
1
 40
1
 10
346.245471
 20
664.868095
 30
0.0
 10
347.635247
 20
663.478318
 30
0.0
 10
349.725358
 20
663.062568
 30
0.0
 10
351.541189
 20
663.814710
 30
0.0
  0
SPLINE
  5
143
100
AcDbEntity
  8
screw_holes
 62
7
100
AcDbSpline
 70
8
 71
3
 72
8
 73
4
 74
0
 40
0
 40
0
 40
0
 40
0
 40
1
 40
1
 40
1
 40
1
 10
351.541189
 20
663.814710
 30
0.0
 10
353.357020
 20
664.566852
 30
0.0
 10
354.540973
 20
666.338764
 30
0.0
 10
354.540973
 20
668.304205
 30
0.0
  0
SPLINE
  5
144
100
AcDbEntity
  8
screw_holes
 62
7
100
AcDbSpline
 70
8
 71
3
 72
8
 73
4
 74
0
 40
0
 40
0
 40
0
 40
0
 40
1
 40
1
 40
1
 40
1
 10
354.540973
 20
668.304205
 30
0.0
 10
354.540973
 20
669.592996
 30
0.0
 10
354.029002
 20
670.829002
 30
0.0
 10
353.117689
 20
671.740316
 30
0.0
  0
SPLINE
  5
145
100
AcDbEntity
  8
screw_holes
 62
7
100
AcDbSpline
 70
8
 71
3
 72
8
 73
4
 74
0
 40
0
 40
0
 40
0
 40
0
 40
1
 40
1
 40
1
 40
1
 10
353.117689
 20
671.740316
 30
0.0
 10
352.206377
 20
672.651629
 30
0.0
 10
350.970371
 20
673.163599
 30
0.0
 10
349.681580
 20
673.163599
 30
0.0
  0
LWPOLYLINE
  5
146
100
AcDbEntity
  8
screw_holes
 62
7
100
AcDbPolyline
 90
1
 70
1
 10
349.681580
 20
793.163599
 30
0.0
  0
SPLINE
  5
147
100
AcDbEntity
  8
screw_holes
 62
7
100
AcDbSpline
 70
8
 71
3
 72
8
 73
4
 74
0
 40
0
 40
0
 40
0
 40
0
 40
1
 40
1
 40
1
 40
1
 10
349.681580
 20
573.163629
 30
0.0
 10
347.716139
 20
573.163629
 30
0.0
 10
345.944228
 20
571.979676
 30
0.0
 10
345.192087
 20
570.163845
 30
0.0
  0
SPLINE
  5
148
100
AcDbEntity
  8
screw_holes
 62
7
100
AcDbSpline
 70
8
 71
3
 72
8
 73
4
 74
0
 40
0
 40
0
 40
0
 40
0
 40
1
 40
1
 40
1
 40
1
 10
345.192087
 20
570.163845
 30
0.0
 10
344.439945
 20
568.348014
 30
0.0
 10
344.855694
 20
566.257901
 30
0.0
 10
346.245471
 20
564.868125
 30
0.0
  0
SPLINE
  5
149
100
AcDbEntity
  8
screw_holes
 62
7
100
AcDbSpline
 70
8
 71
3
 72
8
 73
4
 74
0
 40
0
 40
0
 40
0
 40
0
 40
1
 40
1
 40
1
 40
1
 10
346.245471
 20
564.868125
 30
0.0
 10
347.635247
 20
563.478348
 30
0.0
 10
349.725358
 20
563.062598
 30
0.0
 10
351.541189
 20
563.814740
 30
0.0
  0
SPLINE
  5
14a
100
AcDbEntity
  8
screw_holes
 62
7
100
AcDbSpline
 70
8
 71
3
 72
8
 73
4
 74
0
 40
0
 40
0
 40
0
 40
0
 40
1
 40
1
 40
1
 40
1
 10
351.541189
 20
563.814740
 30
0.0
 10
353.357020
 20
564.566882
 30
0.0
 10
354.540973
 20
566.338794
 30
0.0
 10
354.540973
 20
568.304235
 30
0.0
  0
SPLINE
  5
14b
100
AcDbEntity
  8
screw_holes
 62
7
100
AcDbSpline
 70
8
 71
3
 72
8
 73
4
 74
0
 40
0
 40
0
 40
0
 40
0
 40
1
 40
1
 40
1
 40
1
 10
354.540973
 20
568.304235
 30
0.0
 10
354.540973
 20
569.593026
 30
0.0
 10
354.029002
 20
570.829032
 30
0.0
 10
353.117689
 20
571.740346
 30
0.0
  0
SPLINE
  5
14c
100
AcDbEntity
  8
screw_holes
 62
7
100
AcDbSpline
 70
8
 71
3
 72
8
 73
4
 74
0
 40
0
 40
0
 40
0
 40
0
 40
1
 40
1
 40
1
 40
1
 10
353.117689
 20
571.740346
 30
0.0
 10
352.206377
 20
572.651659
 30
0.0
 10
350.970371
 20
573.163629
 30
0.0
 10
349.681580
 20
573.163629
 30
0.0
  0
LWPOLYLINE
  5
14d
100
AcDbEntity
  8
screw_holes
 62
7
100
AcDbPolyline
 90
1
 70
1
 10
349.681580
 20
673.163599
 30
0.0
  0
SPLINE
  5
14e
100
AcDbEntity
  8
screw_holes
 62
7
100
AcDbSpline
 70
8
 71
3
 72
8
 73
4
 74
0
 40
0
 40
0
 40
0
 40
0
 40
1
 40
1
 40
1
 40
1
 10
493.681580
 20
793.163599
 30
0.0
 10
491.716139
 20
793.163599
 30
0.0
 10
489.944228
 20
791.979646
 30
0.0
 10
489.192087
 20
790.163815
 30
0.0
  0
SPLINE
  5
14f
100
AcDbEntity
  8
screw_holes
 62
7
100
AcDbSpline
 70
8
 71
3
 72
8
 73
4
 74
0
 40
0
 40
0
 40
0
 40
0
 40
1
 40
1
 40
1
 40
1
 10
489.192087
 20
790.163815
 30
0.0
 10
488.439945
 20
788.347984
 30
0.0
 10
488.855694
 20
786.257871
 30
0.0
 10
490.245471
 20
784.868095
 30
0.0
  0
SPLINE
  5
150
100
AcDbEntity
  8
screw_holes
 62
7
100
AcDbSpline
 70
8
 71
3
 72
8
 73
4
 74
0
 40
0
 40
0
 40
0
 40
0
 40
1
 40
1
 40
1
 40
1
 10
490.245471
 20
784.868095
 30
0.0
 10
491.635247
 20
783.478318
 30
0.0
 10
493.725358
 20
783.062568
 30
0.0
 10
495.541189
 20
783.814710
 30
0.0
  0
SPLINE
  5
151
100
AcDbEntity
  8
screw_holes
 62
7
100
AcDbSpline
 70
8
 71
3
 72
8
 73
4
 74
0
 40
0
 40
0
 40
0
 40
0
 40
1
 40
1
 40
1
 40
1
 10
495.541189
 20
783.814710
 30
0.0
 10
497.357020
 20
784.566852
 30
0.0
 10
498.540973
 20
786.338764
 30
0.0
 10
498.540973
 20
788.304205
 30
0.0
  0
SPLINE
  5
152
100
AcDbEntity
  8
screw_holes
 62
7
100
AcDbSpline
 70
8
 71
3
 72
8
 73
4
 74
0
 40
0
 40
0
 40
0
 40
0
 40
1
 40
1
 40
1
 40
1
 10
498.540973
 20
788.304205
 30
0.0
 10
498.540973
 20
789.592996
 30
0.0
 10
498.029002
 20
790.829002
 30
0.0
 10
497.117689
 20
791.740316
 30
0.0
  0
SPLINE
  5
153
100
AcDbEntity
  8
screw_holes
 62
7
100
AcDbSpline
 70
8
 71
3
 72
8
 73
4
 74
0
 40
0
 40
0
 40
0
 40
0
 40
1
 40
1
 40
1
 40
1
 10
497.117689
 20
791.740316
 30
0.0
 10
496.206377
 20
792.651629
 30
0.0
 10
494.970371
 20
793.163599
 30
0.0
 10
493.681580
 20
793.163599
 30
0.0
  0
LWPOLYLINE
  5
154
100
AcDbEntity
  8
screw_holes
 62
7
100
AcDbPolyline
 90
1
 70
1
 10
349.681580
 20
573.163629
 30
0.0
  0
SPLINE
  5
155
100
AcDbEntity
  8
screw_holes
 62
7
100
AcDbSpline
 70
8
 71
3
 72
8
 73
4
 74
0
 40
0
 40
0
 40
0
 40
0
 40
1
 40
1
 40
1
 40
1
 10
493.681580
 20
673.163599
 30
0.0
 10
491.716139
 20
673.163599
 30
0.0
 10
489.944228
 20
671.979646
 30
0.0
 10
489.192087
 20
670.163815
 30
0.0
  0
SPLINE
  5
156
100
AcDbEntity
  8
screw_holes
 62
7
100
AcDbSpline
 70
8
 71
3
 72
8
 73
4
 74
0
 40
0
 40
0
 40
0
 40
0
 40
1
 40
1
 40
1
 40
1
 10
489.192087
 20
670.163815
 30
0.0
 10
488.439945
 20
668.347984
 30
0.0
 10
488.855694
 20
666.257871
 30
0.0
 10
490.245471
 20
664.868095
 30
0.0
  0
SPLINE
  5
157
100
AcDbEntity
  8
screw_holes
 62
7
100
AcDbSpline
 70
8
 71
3
 72
8
 73
4
 74
0
 40
0
 40
0
 40
0
 40
0
 40
1
 40
1
 40
1
 40
1
 10
490.245471
 20
664.868095
 30
0.0
 10
491.635247
 20
663.478318
 30
0.0
 10
493.725358
 20
663.062568
 30
0.0
 10
495.541189
 20
663.814710
 30
0.0
  0
SPLINE
  5
158
100
AcDbEntity
  8
screw_holes
 62
7
100
AcDbSpline
 70
8
 71
3
 72
8
 73
4
 74
0
 40
0
 40
0
 40
0
 40
0
 40
1
 40
1
 40
1
 40
1
 10
495.541189
 20
663.814710
 30
0.0
 10
497.357020
 20
664.566852
 30
0.0
 10
498.540973
 20
666.338764
 30
0.0
 10
498.540973
 20
668.304205
 30
0.0
  0
SPLINE
  5
159
100
AcDbEntity
  8
screw_holes
 62
7
100
AcDbSpline
 70
8
 71
3
 72
8
 73
4
 74
0
 40
0
 40
0
 40
0
 40
0
 40
1
 40
1
 40
1
 40
1
 10
498.540973
 20
668.304205
 30
0.0
 10
498.540973
 20
669.592996
 30
0.0
 10
498.029002
 20
670.829002
 30
0.0
 10
497.117689
 20
671.740316
 30
0.0
  0
SPLINE
  5
15a
100
AcDbEntity
  8
screw_holes
 62
7
100
AcDbSpline
 70
8
 71
3
 72
8
 73
4
 74
0
 40
0
 40
0
 40
0
 40
0
 40
1
 40
1
 40
1
 40
1
 10
497.117689
 20
671.740316
 30
0.0
 10
496.206377
 20
672.651629
 30
0.0
 10
494.970371
 20
673.163599
 30
0.0
 10
493.681580
 20
673.163599
 30
0.0
  0
LWPOLYLINE
  5
15b
100
AcDbEntity
  8
screw_holes
 62
7
100
AcDbPolyline
 90
1
 70
1
 10
493.681580
 20
793.163599
 30
0.0
  0
SPLINE
  5
15c
100
AcDbEntity
  8
screw_holes
 62
7
100
AcDbSpline
 70
8
 71
3
 72
8
 73
4
 74
0
 40
0
 40
0
 40
0
 40
0
 40
1
 40
1
 40
1
 40
1
 10
493.681580
 20
573.163629
 30
0.0
 10
491.716139
 20
573.163629
 30
0.0
 10
489.944228
 20
571.979676
 30
0.0
 10
489.192087
 20
570.163845
 30
0.0
  0
SPLINE
  5
15d
100
AcDbEntity
  8
screw_holes
 62
7
100
AcDbSpline
 70
8
 71
3
 72
8
 73
4
 74
0
 40
0
 40
0
 40
0
 40
0
 40
1
 40
1
 40
1
 40
1
 10
489.192087
 20
570.163845
 30
0.0
 10
488.439945
 20
568.348014
 30
0.0
 10
488.855694
 20
566.257901
 30
0.0
 10
490.245471
 20
564.868125
 30
0.0
  0
SPLINE
  5
15e
100
AcDbEntity
  8
screw_holes
 62
7
100
AcDbSpline
 70
8
 71
3
 72
8
 73
4
 74
0
 40
0
 40
0
 40
0
 40
0
 40
1
 40
1
 40
1
 40
1
 10
490.245471
 20
564.868125
 30
0.0
 10
491.635247
 20
563.478348
 30
0.0
 10
493.725358
 20
563.062598
 30
0.0
 10
495.541189
 20
563.814740
 30
0.0
  0
SPLINE
  5
15f
100
AcDbEntity
  8
screw_holes
 62
7
100
AcDbSpline
 70
8
 71
3
 72
8
 73
4
 74
0
 40
0
 40
0
 40
0
 40
0
 40
1
 40
1
 40
1
 40
1
 10
495.541189
 20
563.814740
 30
0.0
 10
497.357020
 20
564.566882
 30
0.0
 10
498.540973
 20
566.338794
 30
0.0
 10
498.540973
 20
568.304235
 30
0.0
  0
SPLINE
  5
160
100
AcDbEntity
  8
screw_holes
 62
7
100
AcDbSpline
 70
8
 71
3
 72
8
 73
4
 74
0
 40
0
 40
0
 40
0
 40
0
 40
1
 40
1
 40
1
 40
1
 10
498.540973
 20
568.304235
 30
0.0
 10
498.540973
 20
569.593026
 30
0.0
 10
498.029002
 20
570.829032
 30
0.0
 10
497.117689
 20
571.740346
 30
0.0
  0
SPLINE
  5
161
100
AcDbEntity
  8
screw_holes
 62
7
100
AcDbSpline
 70
8
 71
3
 72
8
 73
4
 74
0
 40
0
 40
0
 40
0
 40
0
 40
1
 40
1
 40
1
 40
1
 10
497.117689
 20
571.740346
 30
0.0
 10
496.206377
 20
572.651659
 30
0.0
 10
494.970371
 20
573.163629
 30
0.0
 10
493.681580
 20
573.163629
 30
0.0
  0
LWPOLYLINE
  5
162
100
AcDbEntity
  8
screw_holes
 62
7
100
AcDbPolyline
 90
1
 70
1
 10
493.681580
 20
673.163599
 30
0.0
  0
SPLINE
  5
163
100
AcDbEntity
  8
screw_holes
 62
7
100
AcDbSpline
 70
8
 71
3
 72
8
 73
4
 74
0
 40
0
 40
0
 40
0
 40
0
 40
1
 40
1
 40
1
 40
1
 10
609.681580
 20
501.163629
 30
0.0
 10
607.716139
 20
501.163629
 30
0.0
 10
605.944228
 20
499.979676
 30
0.0
 10
605.192087
 20
498.163845
 30
0.0
  0
SPLINE
  5
164
100
AcDbEntity
  8
screw_holes
 62
7
100
AcDbSpline
 70
8
 71
3
 72
8
 73
4
 74
0
 40
0
 40
0
 40
0
 40
0
 40
1
 40
1
 40
1
 40
1
 10
605.192087
 20
498.163845
 30
0.0
 10
604.439945
 20
496.348014
 30
0.0
 10
604.855694
 20
494.257901
 30
0.0
 10
606.245471
 20
492.868125
 30
0.0
  0
SPLINE
  5
165
100
AcDbEntity
  8
screw_holes
 62
7
100
AcDbSpline
 70
8
 71
3
 72
8
 73
4
 74
0
 40
0
 40
0
 40
0
 40
0
 40
1
 40
1
 40
1
 40
1
 10
606.245471
 20
492.868125
 30
0.0
 10
607.635247
 20
491.478348
 30
0.0
 10
609.725358
 20
491.062598
 30
0.0
 10
611.541189
 20
491.814740
 30
0.0
  0
SPLINE
  5
166
100
AcDbEntity
  8
screw_holes
 62
7
100
AcDbSpline
 70
8
 71
3
 72
8
 73
4
 74
0
 40
0
 40
0
 40
0
 40
0
 40
1
 40
1
 40
1
 40
1
 10
611.541189
 20
491.814740
 30
0.0
 10
613.357020
 20
492.566882
 30
0.0
 10
614.540973
 20
494.338794
 30
0.0
 10
614.540973
 20
496.304235
 30
0.0
  0
SPLINE
  5
167
100
AcDbEntity
  8
screw_holes
 62
7
100
AcDbSpline
 70
8
 71
3
 72
8
 73
4
 74
0
 40
0
 40
0
 40
0
 40
0
 40
1
 40
1
 40
1
 40
1
 10
614.540973
 20
496.304235
 30
0.0
 10
614.540973
 20
497.593026
 30
0.0
 10
614.029002
 20
498.829032
 30
0.0
 10
613.117689
 20
499.740346
 30
0.0
  0
SPLINE
  5
168
100
AcDbEntity
  8
screw_holes
 62
7
100
AcDbSpline
 70
8
 71
3
 72
8
 73
4
 74
0
 40
0
 40
0
 40
0
 40
0
 40
1
 40
1
 40
1
 40
1
 10
613.117689
 20
499.740346
 30
0.0
 10
612.206377
 20
500.651659
 30
0.0
 10
610.970371
 20
501.163629
 30
0.0
 10
609.681580
 20
501.163629
 30
0.0
  0
LWPOLYLINE
  5
169
100
AcDbEntity
  8
screw_holes
 62
7
100
AcDbPolyline
 90
1
 70
1
 10
493.681580
 20
573.163629
 30
0.0
  0
LWPOLYLINE
  5
16a
100
AcDbEntity
  8
screw_holes
 62
7
100
AcDbPolyline
 90
1
 70
1
 10
609.681580
 20
501.163629
 30
0.0
  0
ENDSEC
  0
SECTION
  2
OBJECTS
  0
DICTIONARY
  5
C
330
0
100
AcDbDictionary
  3
ACAD_GROUP
350
D
  3
ACAD_MLINESTYLE
350
17
  0
DICTIONARY
  5
D
330
C
100
AcDbDictionary
  0
DICTIONARY
  5
1A
330
C
100
AcDbDictionary
  0
DICTIONARY
  5
17
330
C
100
AcDbDictionary
  3
STANDARD
350
18
  0
DICTIONARY
  5
19
330
C
100
AcDbDictionary
  0
ENDSEC
  0
EOF
