<?xml version="1.0" encoding="UTF-8" standalone="no"?>
<svg
   viewBox="0 0 793.7007874015749 1122.5196850393702"
   width="793.7007874015749"
   height="1122.5196850393702"
   version="1.1"
   id="svg577"
   sodipodi:docname="top-plate.svg"
   inkscape:version="1.2.2 (b0a8486, 2022-12-01)"
   xmlns:inkscape="http://www.inkscape.org/namespaces/inkscape"
   xmlns:sodipodi="http://sodipodi.sourceforge.net/DTD/sodipodi-0.dtd"
   xmlns="http://www.w3.org/2000/svg"
   xmlns:svg="http://www.w3.org/2000/svg">
  <sodipodi:namedview
     id="namedview579"
     pagecolor="#ffffff"
     bordercolor="#000000"
     borderopacity="0.25"
     inkscape:showpageshadow="2"
     inkscape:pageopacity="0.0"
     inkscape:pagecheckerboard="0"
     inkscape:deskcolor="#d1d1d1"
     showgrid="false"
     inkscape:zoom="1.9033873"
     inkscape:cx="276.61212"
     inkscape:cy="519.86267"
     inkscape:window-width="2560"
     inkscape:window-height="1387"
     inkscape:window-x="0"
     inkscape:window-y="25"
     inkscape:window-maximized="1"
     inkscape:current-layer="g575" />
  <desc
     id="desc25">e38ca057d0dde02145862679b67c32d340a6b6c6_switch.dxf - scale = 1.000000, origin = (0.000000, 0.000000), method = manual</desc>
  <defs
     id="defs37">
    <marker
       id="DistanceX"
       orient="auto"
       refX="0.0"
       refY="0.0"
       style="overflow:visible">
      <path
         d="M 3,-3 L -3,3 M 0,-5 L  0,5"
         style="stroke:#000000; stroke-width:0.5"
         id="path27" />
    </marker>
    <pattern
       id="Hatch"
       patternUnits="userSpaceOnUse"
       width="8"
       height="8"
       x="0"
       y="0">
      <path
         d="M8 4 l-4,4"
         stroke="#000000"
         stroke-width="0.25"
         linecap="square"
         id="path30" />
      <path
         d="M6 2 l-4,4"
         stroke="#000000"
         stroke-width="0.25"
         linecap="square"
         id="path32" />
      <path
         d="M4 0 l-4,4"
         stroke="#000000"
         stroke-width="0.25"
         linecap="square"
         id="path34" />
    </pattern>
  </defs>
  <g
     inkscape:groupmode="layer"
     inkscape:label="0"
     id="g575">
    <path
       style="fill:none;stroke:#000000"
       d="m 587.29603,686.7195 45.823,26.46"
       id="path167" />
    <path
       style="fill:none;stroke:#000000"
       d="m 633.11903,713.1795 26.457,-45.83"
       id="path169" />
    <path
       style="fill:none;stroke:#000000"
       d="m 659.57603,667.3495 -45.823,-26.45"
       id="path171" />
    <path
       style="fill:none;stroke:#000000"
       d="m 613.75303,640.8995 -26.457,45.82"
       id="path173" />
    <path
       style="fill:none;stroke:#000000"
       d="m 524.94203,650.7195 45.826,26.46"
       id="path175" />
    <path
       style="fill:none;stroke:#000000"
       d="m 570.76803,677.1795 26.461,-45.83"
       id="path177" />
    <path
       style="fill:none;stroke:#000000"
       d="m 597.22903,631.3495 -45.834,-26.453"
       id="path179" />
    <path
       style="fill:none;stroke:#000000"
       d="m 551.39503,604.8965 -26.453,45.823"
       id="path181" />
    <path
       style="fill:none;stroke:#000000"
       d="m 623.29603,624.3695 45.823,26.46"
       id="path183" />
    <path
       style="fill:none;stroke:#000000"
       d="m 669.11903,650.8295 26.457,-45.829"
       id="path185" />
    <path
       style="fill:none;stroke:#000000"
       d="m 695.57603,605.0005 -45.823,-26.459"
       id="path187" />
    <path
       style="fill:none;stroke:#000000"
       d="m 649.75303,578.5415 -26.457,45.828"
       id="path189" />
    <path
       style="fill:none;stroke:#000000"
       d="m 462.58703,614.7195 45.827,26.46"
       id="path191" />
    <path
       style="fill:none;stroke:#000000"
       d="m 508.41403,641.1795 26.46,-45.826"
       id="path193" />
    <path
       style="fill:none;stroke:#000000"
       d="m 534.87403,595.3535 -45.827,-26.457"
       id="path195" />
    <path
       style="fill:none;stroke:#000000"
       d="m 489.04703,568.8965 -26.46,45.823"
       id="path197" />
    <path
       style="fill:none;stroke:#000000"
       d="m 143.45203,579.2305 h 52.917"
       id="path199" />
    <path
       style="fill:none;stroke:#000000"
       d="m 196.36903,579.2305 v 52.909"
       id="path201" />
    <path
       style="fill:none;stroke:#000000"
       d="m 196.36903,632.1395 h -52.917"
       id="path203" />
    <path
       style="fill:none;stroke:#000000"
       d="m 143.45203,632.1395 v -52.909"
       id="path205" />
    <path
       style="fill:none;stroke:#000000"
       d="m 215.45203,579.2305 h 52.911"
       id="path207" />
    <path
       style="fill:none;stroke:#000000"
       d="m 268.36303,579.2305 v 52.909"
       id="path209" />
    <path
       style="fill:none;stroke:#000000"
       d="m 268.36303,632.1395 h -52.911"
       id="path211" />
    <path
       style="fill:none;stroke:#000000"
       d="m 215.45203,632.1395 v -52.909"
       id="path213" />
    <path
       style="fill:none;stroke:#000000"
       d="m 560.94203,588.3695 45.826,26.459"
       id="path215" />
    <path
       style="fill:none;stroke:#000000"
       d="m 606.76803,614.8285 26.461,-45.828"
       id="path217" />
    <path
       style="fill:none;stroke:#000000"
       d="m 633.22903,569.0005 -45.827,-26.459"
       id="path219" />
    <path
       style="fill:none;stroke:#000000"
       d="m 587.40203,542.5415 -26.46,45.828"
       id="path221" />
    <path
       style="fill:none;stroke:#000000"
       d="m 287.45203,561.2305 h 52.916"
       id="path223" />
    <path
       style="fill:none;stroke:#000000"
       d="m 340.36803,561.2305 v 52.91"
       id="path225" />
    <path
       style="fill:none;stroke:#000000"
       d="m 340.36803,614.1405 h -52.916"
       id="path227" />
    <path
       style="fill:none;stroke:#000000"
       d="m 287.45203,614.1405 v -52.91"
       id="path229" />
    <path
       style="fill:none;stroke:#000000"
       d="m 359.45203,552.2295 h 52.916"
       id="path231" />
    <path
       style="fill:none;stroke:#000000"
       d="m 412.36803,552.2295 v 52.916"
       id="path233" />
    <path
       style="fill:none;stroke:#000000"
       d="m 412.36803,605.1455 h -52.916"
       id="path235" />
    <path
       style="fill:none;stroke:#000000"
       d="m 359.45203,605.1455 v -52.916"
       id="path237" />
    <path
       style="fill:none;stroke:#000000"
       d="m 143.45203,507.5885 h 52.917"
       id="path239" />
    <path
       style="fill:none;stroke:#000000"
       d="m 196.36903,507.5885 v 52.912"
       id="path241" />
    <path
       style="fill:none;stroke:#000000"
       d="m 196.36903,560.5005 h -52.917"
       id="path243" />
    <path
       style="fill:none;stroke:#000000"
       d="m 143.45203,560.5005 v -52.912"
       id="path245" />
    <path
       style="fill:none;stroke:#000000"
       d="m 215.45203,507.2305 h 52.916"
       id="path247" />
    <path
       style="fill:none;stroke:#000000"
       d="m 268.36803,507.2305 v 52.91"
       id="path249" />
    <path
       style="fill:none;stroke:#000000"
       d="m 268.36803,560.1405 h -52.916"
       id="path251" />
    <path
       style="fill:none;stroke:#000000"
       d="m 215.45203,560.1405 v -52.91"
       id="path253" />
    <path
       style="fill:none;stroke:#000000"
       d="m 503.45103,498.2295 h 52.917"
       id="path255" />
    <path
       style="fill:none;stroke:#000000"
       d="m 556.36803,498.2295 v 52.911"
       id="path257" />
    <path
       style="fill:none;stroke:#000000"
       d="m 556.36803,551.1405 h -52.917"
       id="path259" />
    <path
       style="fill:none;stroke:#000000"
       d="m 503.45103,551.1405 v -52.911"
       id="path261" />
    <path
       style="fill:none;stroke:#000000"
       d="m 287.45203,489.2305 h 52.916"
       id="path263" />
    <path
       style="fill:none;stroke:#000000"
       d="m 340.36803,489.2305 v 52.91"
       id="path265" />
    <path
       style="fill:none;stroke:#000000"
       d="m 340.36803,542.1405 h -52.916"
       id="path267" />
    <path
       style="fill:none;stroke:#000000"
       d="m 287.45203,542.1405 v -52.91"
       id="path269" />
    <path
       style="fill:none;stroke:#000000"
       d="m 431.45203,489.2305 h 52.916"
       id="path271" />
    <path
       style="fill:none;stroke:#000000"
       d="m 484.36803,489.2305 v 52.91"
       id="path273" />
    <path
       style="fill:none;stroke:#000000"
       d="m 484.36803,542.1405 h -52.916"
       id="path275" />
    <path
       style="fill:none;stroke:#000000"
       d="m 431.45203,542.1405 v -52.91"
       id="path277" />
    <path
       style="fill:none;stroke:#000000"
       d="m 359.45203,480.2295 h 52.916"
       id="path279" />
    <path
       style="fill:none;stroke:#000000"
       d="m 412.36803,480.2295 v 52.916"
       id="path281" />
    <path
       style="fill:none;stroke:#000000"
       d="m 412.36803,533.1455 h -52.916"
       id="path283" />
    <path
       style="fill:none;stroke:#000000"
       d="m 359.45203,533.1455 v -52.916"
       id="path285" />
    <path
       style="fill:none;stroke:#000000"
       d="m 575.45103,462.2295 h 52.917"
       id="path287" />
    <path
       style="fill:none;stroke:#000000"
       d="m 628.36803,462.2295 v 52.911"
       id="path289" />
    <path
       style="fill:none;stroke:#000000"
       d="m 628.36803,515.1405 h -52.917"
       id="path291" />
    <path
       style="fill:none;stroke:#000000"
       d="m 575.45103,515.1405 v -52.911"
       id="path293" />
    <path
       style="fill:none;stroke:#000000"
       d="m 143.45203,435.5885 h 52.917"
       id="path295" />
    <path
       style="fill:none;stroke:#000000"
       d="m 196.36903,435.5885 v 52.917"
       id="path297" />
    <path
       style="fill:none;stroke:#000000"
       d="m 196.36903,488.5055 h -52.917"
       id="path299" />
    <path
       style="fill:none;stroke:#000000"
       d="m 143.45203,488.5055 v -52.917"
       id="path301" />
    <path
       style="fill:none;stroke:#000000"
       d="m 215.45203,435.2305 h 52.916"
       id="path303" />
    <path
       style="fill:none;stroke:#000000"
       d="m 268.36803,435.2305 v 52.91"
       id="path305" />
    <path
       style="fill:none;stroke:#000000"
       d="m 268.36803,488.1405 h -52.916"
       id="path307" />
    <path
       style="fill:none;stroke:#000000"
       d="m 215.45203,488.1405 v -52.91"
       id="path309" />
    <path
       style="fill:none;stroke:#000000"
       d="m 503.45103,426.2295 h 52.917"
       id="path311" />
    <path
       style="fill:none;stroke:#000000"
       d="m 556.36803,426.2295 v 52.911"
       id="path313" />
    <path
       style="fill:none;stroke:#000000"
       d="m 556.36803,479.1405 h -52.917"
       id="path315" />
    <path
       style="fill:none;stroke:#000000"
       d="m 503.45103,479.1405 v -52.911"
       id="path317" />
    <path
       style="fill:none;stroke:#000000"
       d="m 287.45203,417.2305 h 52.916"
       id="path319" />
    <path
       style="fill:none;stroke:#000000"
       d="m 340.36803,417.2305 v 52.91"
       id="path321" />
    <path
       style="fill:none;stroke:#000000"
       d="m 340.36803,470.1405 h -52.916"
       id="path323" />
    <path
       style="fill:none;stroke:#000000"
       d="m 287.45203,470.1405 v -52.91"
       id="path325" />
    <path
       style="fill:none;stroke:#000000"
       d="m 431.45203,417.2305 h 52.916"
       id="path327" />
    <path
       style="fill:none;stroke:#000000"
       d="m 484.36803,417.2305 v 52.91"
       id="path329" />
    <path
       style="fill:none;stroke:#000000"
       d="m 484.36803,470.1405 h -52.916"
       id="path331" />
    <path
       style="fill:none;stroke:#000000"
       d="m 431.45203,470.1405 v -52.91"
       id="path333" />
    <path
       style="fill:none;stroke:#000000"
       d="m 359.45203,408.2295 h 52.916"
       id="path335" />
    <path
       style="fill:none;stroke:#000000"
       d="m 412.36803,408.2295 v 52.916"
       id="path337" />
    <path
       style="fill:none;stroke:#000000"
       d="m 412.36803,461.1455 h -52.916"
       id="path339" />
    <path
       style="fill:none;stroke:#000000"
       d="m 359.45203,461.1455 v -52.916"
       id="path341" />
    <path
       style="fill:none;stroke:#000000"
       d="m 575.45103,390.2295 h 52.917"
       id="path343" />
    <path
       style="fill:none;stroke:#000000"
       d="m 628.36803,390.2295 v 52.911"
       id="path345" />
    <path
       style="fill:none;stroke:#000000"
       d="m 628.36803,443.1405 h -52.917"
       id="path347" />
    <path
       style="fill:none;stroke:#000000"
       d="m 575.45103,443.1405 v -52.911"
       id="path349" />
    <path
       style="fill:none;stroke:#000000"
       d="m 143.45203,363.5885 h 52.917"
       id="path351" />
    <path
       style="fill:none;stroke:#000000"
       d="m 196.36903,363.5885 v 52.917"
       id="path353" />
    <path
       style="fill:none;stroke:#000000"
       d="m 196.36903,416.5055 h -52.917"
       id="path355" />
    <path
       style="fill:none;stroke:#000000"
       d="m 143.45203,416.5055 v -52.917"
       id="path357" />
    <path
       style="fill:none;stroke:#000000"
       d="m 215.45203,363.2295 h 52.916"
       id="path359" />
    <path
       style="fill:none;stroke:#000000"
       d="m 268.36803,363.2295 v 52.911"
       id="path361" />
    <path
       style="fill:none;stroke:#000000"
       d="m 268.36803,416.1405 h -52.916"
       id="path363" />
    <path
       style="fill:none;stroke:#000000"
       d="m 215.45203,416.1405 v -52.911"
       id="path365" />
    <path
       style="fill:none;stroke:#000000"
       d="m 503.45103,354.2305 h 52.917"
       id="path367" />
    <path
       style="fill:none;stroke:#000000"
       d="m 556.36803,354.2305 v 52.91"
       id="path369" />
    <path
       style="fill:none;stroke:#000000"
       d="m 556.36803,407.1405 h -52.917"
       id="path371" />
    <path
       style="fill:none;stroke:#000000"
       d="m 503.45103,407.1405 v -52.91"
       id="path373" />
    <path
       style="fill:none;stroke:#000000"
       d="m 287.45203,345.2315 h 52.916"
       id="path375" />
    <path
       style="fill:none;stroke:#000000"
       d="m 340.36803,345.2315 v 52.909"
       id="path377" />
    <path
       style="fill:none;stroke:#000000"
       d="m 340.36803,398.1405 h -52.916"
       id="path379" />
    <path
       style="fill:none;stroke:#000000"
       d="m 287.45203,398.1405 v -52.909"
       id="path381" />
    <path
       style="fill:none;stroke:#000000"
       d="m 431.45203,345.2315 h 52.916"
       id="path383" />
    <path
       style="fill:none;stroke:#000000"
       d="m 484.36803,345.2315 v 52.909"
       id="path385" />
    <path
       style="fill:none;stroke:#000000"
       d="m 484.36803,398.1405 h -52.916"
       id="path387" />
    <path
       style="fill:none;stroke:#000000"
       d="m 431.45203,398.1405 v -52.909"
       id="path389" />
    <path
       style="fill:none;stroke:#000000"
       d="m 359.45203,336.2285 h 52.916"
       id="path391" />
    <path
       style="fill:none;stroke:#000000"
       d="m 412.36803,336.2285 v 52.917"
       id="path393" />
    <path
       style="fill:none;stroke:#000000"
       d="m 412.36803,389.1455 h -52.916"
       id="path395" />
    <path
       style="fill:none;stroke:#000000"
       d="m 359.45203,389.1455 v -52.917"
       id="path397" />
    <path
       style="fill:none;stroke:#000000"
       d="m 575.45103,318.2305 h 52.917"
       id="path399" />
    <path
       style="fill:none;stroke:#000000"
       d="m 628.36803,318.2305 v 52.91"
       id="path401" />
    <path
       style="fill:none;stroke:#000000"
       d="m 628.36803,371.1405 h -52.917"
       id="path403" />
    <path
       style="fill:none;stroke:#000000"
       d="m 575.45103,371.1405 v -52.91"
       id="path405" />
    <path
       style="fill:none;stroke:#000000"
       d="m 143.45203,291.5885 h 52.917"
       id="path407" />
    <path
       style="fill:none;stroke:#000000"
       d="m 196.36903,291.5885 v 52.917"
       id="path409" />
    <path
       style="fill:none;stroke:#000000"
       d="m 196.36903,344.5055 h -52.917"
       id="path411" />
    <path
       style="fill:none;stroke:#000000"
       d="m 143.45203,344.5055 v -52.917"
       id="path413" />
    <path
       style="fill:none;stroke:#000000"
       d="m 215.45203,291.2295 h 52.916"
       id="path415" />
    <path
       style="fill:none;stroke:#000000"
       d="m 268.36803,291.2295 v 52.909"
       id="path417" />
    <path
       style="fill:none;stroke:#000000"
       d="m 268.36803,344.1385 h -52.916"
       id="path419" />
    <path
       style="fill:none;stroke:#000000"
       d="m 215.45203,344.1385 v -52.909"
       id="path421" />
    <path
       style="fill:none;stroke:#000000"
       d="m 503.45103,282.2305 h 52.917"
       id="path423" />
    <path
       style="fill:none;stroke:#000000"
       d="m 556.36803,282.2305 v 52.909"
       id="path425" />
    <path
       style="fill:none;stroke:#000000"
       d="m 556.36803,335.1395 h -52.917"
       id="path427" />
    <path
       style="fill:none;stroke:#000000"
       d="m 503.45103,335.1395 v -52.909"
       id="path429" />
    <path
       style="fill:none;stroke:#000000"
       d="m 287.45203,273.2315 h 52.916"
       id="path431" />
    <path
       style="fill:none;stroke:#000000"
       d="m 340.36803,273.2315 v 52.909"
       id="path433" />
    <path
       style="fill:none;stroke:#000000"
       d="m 340.36803,326.1405 h -52.916"
       id="path435" />
    <path
       style="fill:none;stroke:#000000"
       d="m 287.45203,326.1405 v -52.909"
       id="path437" />
    <path
       style="fill:none;stroke:#000000"
       d="m 431.45203,273.2315 h 52.916"
       id="path439" />
    <path
       style="fill:none;stroke:#000000"
       d="m 484.36803,273.2315 v 52.909"
       id="path441" />
    <path
       style="fill:none;stroke:#000000"
       d="m 484.36803,326.1405 h -52.916"
       id="path443" />
    <path
       style="fill:none;stroke:#000000"
       d="m 431.45203,326.1405 v -52.909"
       id="path445" />
    <path
       style="fill:none;stroke:#000000"
       d="m 359.45203,264.2285 h 52.916"
       id="path447" />
    <path
       style="fill:none;stroke:#000000"
       d="m 412.36803,264.2285 v 52.917"
       id="path449" />
    <path
       style="fill:none;stroke:#000000"
       d="m 412.36803,317.1455 h -52.916"
       id="path451" />
    <path
       style="fill:none;stroke:#000000"
       d="m 359.45203,317.1455 v -52.917"
       id="path453" />
    <path
       style="fill:none;stroke:#000000;stroke-opacity:1"
       d="m 122.37413,267.94337 h 140.77025 l 42.52973,-24.55455 h 198.21938 l 26.67423,26.67423 h 55.70836 l 64.50652,37.24286 V 546.28453 L 734.25227,594.47577 645.3672,748.42923 460.04457,641.43316 H 121.5743 V 268.7432 Z"
       id="path894"
       inkscape:highlight-color="#000000" />
    <circle
       style="fill:none;stroke:#000000;stroke-opacity:1"
       id="path2431"
       cx="321.87109"
       cy="335.88214"
       r="3" />
    <circle
       style="fill:none;stroke:#000000;stroke-opacity:1"
       id="circle2433"
       cx="321.87109"
       cy="335.88214"
       r="3" />
    <circle
       style="fill:none;stroke:#000000;stroke-opacity:1"
       id="circle2435"
       cx="321.87109"
       cy="550.28119"
       r="3" />
    <circle
       style="fill:none;stroke:#000000;stroke-opacity:1"
       id="circle2437"
       cx="492.19925"
       cy="550.28119"
       r="3" />
    <circle
       style="fill:none;stroke:#000000;stroke-opacity:1"
       id="circle2439"
       cx="492.19925"
       cy="335.08804"
       r="3" />
    <circle
       style="fill:none;stroke:#000000;stroke-opacity:1"
       id="circle2441"
       cx="172.58582"
       cy="353.74872"
       r="3" />
    <circle
       style="fill:none;stroke:#000000;stroke-opacity:1"
       id="circle2443"
       cx="172.58582"
       cy="571.3241"
       r="3" />
    <circle
       style="fill:none;stroke:#000000;stroke-opacity:1"
       id="circle2445"
       cx="610.93494"
       cy="625.93579"
       r="3" />
    <circle
       style="fill:none;stroke:#000000;stroke-opacity:1"
       id="circle3365"
       cx="172.58582"
       cy="426.25104"
       r="3" />
    <circle
       style="fill:none;stroke:#000000;stroke-opacity:1"
       id="circle3367"
       cx="321.87109"
       cy="407.85907"
       r="3" />
    <circle
       style="fill:none;stroke:#000000;stroke-opacity:1"
       id="circle3369"
       cx="492.19925"
       cy="409.1665"
       r="3" />
  </g>
</svg>
